<?xml version="1.0" encoding="utf-8"?>
<!-- Generator: Adobe Illustrator 27.5.0, SVG Export Plug-In . SVG Version: 6.00 Build 0)  -->
<svg version="1.1" xmlns="http://www.w3.org/2000/svg" xmlns:xlink="http://www.w3.org/1999/xlink" x="0px" y="0px"
	 viewBox="0 0 1040 500" style="enable-background:new 0 0 1040 500;" xml:space="preserve">
<g id="BACKGROUND">
	<rect style="fill:#FFFFFF;" width="1040" height="500"/>
</g>
<g id="OBJECTS">
	<g>
		<rect x="58.007" y="52.719" style="fill:#82B369;" width="923.986" height="394.562"/>
		<g>
			<path style="fill:#9AC67F;" d="M539.601,78.449c0-9.3,2.322-18.055,6.404-25.73H58.007v394.562h0.589
				c9.093-19.862,28.003-33.523,49.869-33.523c4.502,0,8.874,0.594,13.066,1.686c13.146-68.482,69.201-119.942,136.363-119.942
				c7.414,0,14.686,0.645,21.786,1.853c2.713-18.891,18.957-33.413,38.599-33.413c11.621,0,22.048,5.088,29.193,13.15
				c22.554-31.722,56.495-53.463,95.217-58.013c-0.667-3.727-1.027-7.573-1.027-11.51c0-33.261,24.909-60.225,55.635-60.225
				c7.957,0,15.518,1.821,22.363,5.079c5.956-17.912,14.959-34.247,26.326-48.283C541.916,96.475,539.601,87.734,539.601,78.449z"/>
		</g>
		<g>
			<path style="fill:#ADD394;" d="M111.424,336.383c13.112-38.796,47.519-66.486,87.899-66.486c0.742,0,1.481,0.012,2.218,0.03
				c-0.045-1.293-0.076-2.591-0.076-3.896c0-35.803,17.161-67.267,43.065-85.281c-0.015-0.511-0.036-1.02-0.036-1.535
				c0-25.721,19.262-46.573,43.024-46.573c21.518,0,39.345,17.101,42.52,39.432c11.006,4.81,20.975,11.815,29.44,20.521
				c9.42-45.158,46.704-78.884,91.268-78.884c2.958,0,5.881,0.156,8.768,0.446c-9.607-15.909-15.197-34.918-15.197-55.343
				c0-2.047,0.063-4.078,0.174-6.095H58.007v262.14C78.124,315.866,96.585,323.743,111.424,336.383z"/>
		</g>
		<g>
			<path style="fill:#BFE0A9;" d="M459.018,114.119c0.165,0.016,0.333,0.021,0.497,0.038c-0.054-0.09-0.104-0.182-0.158-0.272
				C459.242,113.961,459.132,114.044,459.018,114.119z"/>
			<path style="fill:#BFE0A9;" d="M74.108,248.897c-0.369-1.795-0.57-3.659-0.57-5.574c0-14.122,10.575-25.569,23.62-25.569
				c12.272,0,22.356,10.133,23.508,23.091c7.261,2.184,13.93,5.894,19.7,10.796c5.505-20.798,20.903-37.068,40.342-42.432
				c-6.221-9.833-9.867-21.725-9.867-34.543c0-3.022,0.211-5.991,0.602-8.896c-6.721-4.508-11.199-12.56-11.199-21.747
				c0-14.121,10.575-25.569,23.621-25.569c4.948,0,9.539,1.65,13.334,4.465c8.737-5.986,19.086-9.465,30.191-9.465
				c9.118,0,17.724,2.35,25.351,6.499c10.329-14.692,26.647-24.183,45.019-24.183c1.636,0,3.251,0.092,4.851,0.24
				c1.959-11.982,11.62-21.085,23.251-21.085c11.669,0,21.355,9.162,23.27,21.201c7.915-4.563,16.945-7.157,26.538-7.157
				c1.155,0,2.299,0.049,3.437,0.123c-3.8-8.228-5.95-17.504-5.95-27.329c0-3.074,0.215-6.092,0.619-9.044H58.007v213.895
				C62.207,259.59,67.686,253.546,74.108,248.897z"/>
		</g>
		<g>
			<path style="fill:#CFEDBC;" d="M97.306,151.728c3.19,0,6.319,0.281,9.373,0.806c1.435-34.078,27.405-61.232,59.241-61.232
				c7.686,0,15.022,1.6,21.763,4.48c9.495-21.758,29.944-36.817,53.649-36.817c8.765,0,17.077,2.075,24.564,5.769
				c-0.707-3.891-1.089-7.907-1.115-12.016H58.007v115.145C68.472,157.83,82.228,151.728,97.306,151.728z"/>
		</g>
	</g>
	<polygon style="fill:#FFFFFF;" points="880.405,119.984 901.735,89.205 780.198,89.205 658.661,89.205 679.991,119.984 
		657.905,150.263 683.946,150.263 683.946,150.263 876.451,150.263 876.451,150.263 902.491,150.263 	"/>
	<g>
		<g>
			<g id="XMLID_151_">
				<g>
					<path style="fill:#C6BBA3;" d="M458.189,429.792l52.616-7.323c0,0-2.855,7.248-4.038,13.601
						c-0.259,1.361-0.437,2.682-0.494,3.877l-20.998,2.682h-0.012l-23.658,1.08l37.746-5.359l-47.35,3.797l47.35-7.375l-36.85,3.354
						l42.215-7.151l-34.846,3.13l35.96-6.031l-41.095,3.124l41.767-6.031L458.189,429.792z"/>
					<path style="fill:#9A5FF9;" d="M381.443,458.763c0.649-0.959,1.333-2.022,1.987-3.142l57.935-7.392l43.898-5.6h0.012
						l20.998-2.682c0.057-1.195,0.235-2.516,0.494-3.877l7.84,7.438L381.443,458.763z"/>
					<path style="fill:#F9F8F7;" d="M506.308,400.098c0,0-2.573,2.366-7.122,5.319c-4.29,2.786-10.344,6.1-17.656,8.437
						c-2.625-1.97-55.999-42.198-77.319-73.27c-19.206-27.994-18.391-45.695-17.908-49.572c9.178-5.491,14.106-10.775,14.106-10.775
						C407.002,303.509,506.308,400.098,506.308,400.098z"/>
					<polygon style="fill:#D8D0BC;" points="403.148,451.072 431.676,446.615 391.92,449.74 418.501,446.167 393.04,446.391 
						427.88,441.251 394.826,443.261 441.728,435.444 392.368,441.027 436.857,432.762 458.189,429.792 506.503,425.169 
						464.736,431.199 505.831,428.075 469.871,434.106 504.717,430.975 462.502,438.126 499.352,434.772 452.003,442.147 
						499.352,438.35 461.606,443.709 485.263,442.629 441.366,448.229 					"/>
					<path style="fill:#C6BBA3;" d="M387.428,439.642l49.429-6.881l-44.489,8.265l49.36-5.583l-46.902,7.817l33.054-2.01
						l-34.84,5.14l25.461-0.224l-26.581,3.572l39.757-3.124l-28.528,4.457l38.217-2.843l-57.935,7.392
						c1.809-3.078,3.44-6.594,3.768-9.638c0,0,0,0,0-0.006C387.859,443.973,388.215,441.641,387.428,439.642z"/>
					<path style="fill:#F9F8F7;" d="M447.873,415.049c-10.58-1.367-21.222,1.292-30.573,5.307l-0.155-0.373
						c-72.374-38.212-110.327-108.294-114.267-115.841c7.099-2.458,13.71-2.728,20.464-2.395
						c6.932,2.533,41.256,18.816,124.583,112.923L447.873,415.049z"/>
					<path style="fill:#C6BBA3;" d="M387.428,439.642c0-0.006-0.006-0.017-0.012-0.023v-0.006
						c2.148-0.884,42.64-17.414,71.61-15.525c23.554,1.534,40.429-5.031,46.442-7.84l5.336,6.22l-52.616,7.323l-21.332,2.969
						L387.428,439.642z"/>
					<path style="fill:#A0A9F9;" d="M387.417,439.62c0.006,0.006,0.012,0.017,0.012,0.023l-0.098,0.012
						c0.006-0.006,0.006-0.006,0.012-0.012C387.353,439.642,387.382,439.631,387.417,439.62z"/>
					<path style="fill:#D8D0BC;" d="M387.405,439.585c0.551-0.511,4.061-3.682,9.54-7.587v-0.006
						c1.763-1.263,3.739-2.602,5.881-3.952c4.233-2.676,9.144-5.399,14.474-7.685c9.35-4.015,19.993-6.674,30.573-5.307
						c1.12,0.144,2.24,0.333,3.354,0.569c11.303,2.401,21.682,0.994,30.303-1.763c7.311-2.338,13.365-5.652,17.656-8.437
						l8.707,9.609c0,0-0.833,0.483-2.424,1.223c-6.014,2.809-22.888,9.373-46.442,7.84c-28.97-1.89-69.462,14.64-71.61,15.525
						C387.417,439.608,387.411,439.597,387.405,439.585z"/>
					<path style="fill:#AFA287;" d="M381.708,422.142c6.818,6.553,5.858,15.806,5.646,17.305
						c0.178-1.562,0.758-11.418-12.171-15.812c-13.463-7.013-33.806-2.062-53.323-4.319c5.52-0.115,11.424-0.528,17.684-1.35
						c0.006,0.006,0.012,0,0.012,0c2.384-0.304,4.819-0.678,7.306-1.108C366.108,413.509,376.332,416.984,381.708,422.142z"/>
					<path style="fill:#AF85FF;" d="M382.971,438.965c-2.55-0.81-4.951-0.534-6.95,0.804c-3.613,2.418-4.974,7.691-5.456,10.551
						l-2.585-3.142c0,0,2.883-10.448,10.183-11.763c0.011,0,0.034-0.006,0.052-0.006c0.006,0,0.017-0.006,0.023-0.006l0.942-0.103
						h0.006c1.011-0.063,2.108,0.057,3.279,0.391c2.039,0.58,3.383,1.505,4.216,2.613c0.006,0.006,0.011,0.011,0.011,0.017
						c0.253,0.419,0.46,0.867,0.632,1.332h0.006l0.098-0.012c0.787,1.999,0.431,4.331-0.23,6.335
						c0.121-1.108,0.063-2.154-0.218-3.096C386.578,441.549,385.556,439.786,382.971,438.965z"/>
					<path style="fill:#E9E5D9;" d="M447.925,414.67c-83.327-94.108-117.65-110.39-124.583-112.923
						c10.068,0.505,20.453,2.343,33.232,0.213c12.389-2.068,22.405-6.571,29.728-10.947c-0.482,3.877-1.298,21.578,17.908,49.572
						c21.32,31.073,74.695,71.3,77.319,73.27c-8.621,2.757-19,4.164-30.303,1.763c-1.114-0.236-2.234-0.425-3.354-0.569
						L447.925,414.67z"/>
					<path style="fill:#A0A9F9;" d="M378.239,435.404c-0.006,0-0.017,0.006-0.023,0.006L378.239,435.404z"/>
					<path style="fill:#431091;" d="M374.683,460.204c-0.58,0.724-0.672,1.729-0.218,2.544l-7.082-7.369l5.531-0.741
						c1.068-0.144,1.89-1.011,1.981-2.079c0.035-0.362,0.098-0.879,0.207-1.482c2.493,0.333,2.297,5.364,2.297,5.364l0.029,0.017
						C376.498,457.832,375.556,459.119,374.683,460.204z"/>
					<path style="fill:#310D75;" d="M382.581,444.209c0.706,2.343-2.119,7.76-5.152,12.251l-0.029-0.017
						c0,0,0.195-5.031-2.297-5.364v-0.006c0.419-2.378,1.47-6.146,3.481-7.49c0.517-0.345,1.396-0.747,2.992-0.241
						C382.334,443.583,382.489,443.916,382.581,444.209z"/>
					<path style="fill:#AFA287;" d="M262.989,443.089c4.376-0.385,60.755-5.387,79.381-8.828c11.82-2.182,24.548-3.492,33.531-1.872
						c3.986,0.724,7.237,2.022,9.339,4.078c0.569,0.551,1.057,1.166,1.442,1.838c-0.833-1.108-2.177-2.033-4.216-2.613
						c-1.172-0.333-2.269-0.454-3.279-0.391h-0.006c-0.322,0.017-0.637,0.052-0.942,0.103l-0.023,0.006
						c-0.017,0-0.04,0.006-0.052,0.006l-4.687,0.511v-0.011C373.477,435.915,361.416,435.616,262.989,443.089z"/>
					<path style="fill:#8338EA;" d="M376.734,463.926c-0.919,0.103-1.821-0.362-2.269-1.177c-0.454-0.816-0.362-1.821,0.218-2.544
						c0.873-1.086,1.815-2.372,2.745-3.745c3.033-4.491,5.858-9.908,5.152-12.251c-0.092-0.293-0.247-0.626-1.005-0.867
						c-1.597-0.505-2.475-0.103-2.992,0.241c-2.01,1.344-3.061,5.112-3.481,7.49v0.006c-0.109,0.603-0.172,1.12-0.207,1.482
						c-0.092,1.068-0.913,1.936-1.981,2.079l-5.531,0.741h-0.006l-132.854,17.816c-0.103,0.012-0.207,0.017-0.304,0.017
						c-0.666,0-1.298-0.281-1.74-0.793L123.852,346.787c-0.827-0.959-0.724-2.412,0.236-3.239c0.465-0.402,1.04-0.586,1.608-0.557
						c0.609,0.029,1.206,0.299,1.631,0.793l107.817,124.692l135.421-18.155c0.483-2.86,1.844-8.133,5.456-10.551
						c1.999-1.338,4.399-1.614,6.95-0.804c2.585,0.821,3.607,2.585,4.009,3.917c0.281,0.942,0.339,1.987,0.218,3.096
						c0,0.006,0,0.006,0,0.006c-0.327,3.044-1.959,6.559-3.768,9.638c-0.655,1.12-1.338,2.182-1.987,3.142l133.164-15.255
						c1.258-0.155,2.395,0.764,2.539,2.022c0.149,1.264-0.758,2.401-2.016,2.544L376.734,463.926z"/>
					<path style="fill:#9B8D75;" d="M375.183,423.635c12.929,4.394,12.349,14.25,12.171,15.812c-0.172-0.391-0.391-0.77-0.66-1.126
						c0-0.006-0.006-0.012-0.011-0.017c-0.385-0.672-0.873-1.287-1.442-1.838l0.012-0.012C379.927,424.267,365,422.119,365,422.119
						s-2.315-0.35-6.191-0.574C365.85,421.441,371.168,422.274,375.183,423.635z"/>
					<path style="fill:#C6BBA3;" d="M396.945,431.998c-5.479,3.906-8.989,7.076-9.54,7.587c-0.017-0.04-0.034-0.086-0.052-0.126
						c0-0.006,0-0.006,0-0.012c0.213-1.499,1.172-10.752-5.646-17.305l0.023-0.017v-0.006c-0.5-0.557-12.188-13.647-27.483-30.768
						c9.747,9.781,37.184,37.143,42.697,40.641V431.998z"/>
					<path style="fill:#E9E5D9;" d="M358.791,421.545c-8.472,0.126-19.43,1.62-33.605,5.186c-0.017,0.006-0.029,0.006-0.029,0.006
						c-44.219,11.131-59.491-2.228-59.491-2.228s-38.172-35.949-50.583-58.854c-9.31-17.185-32.411-38.131-43.364-47.522
						c-3.647-3.125-5.945-4.968-5.945-4.968s11.298-3.004,20.947-4.313c6.461,8.179,81.954,103.763,85.86,111.568
						c0,0,40.773,6.795,58.779,3.061C342.428,421.183,352.599,421.194,358.791,421.545z"/>
					<path style="fill:#C6BBA3;" d="M367.09,440.625l-43.967,2.878l44.179-5.347l-51.123,4.038l19.953-2.182l37.344-4.084
						l4.687-0.511c-7.3,1.315-10.183,11.763-10.183,11.763l-39.177,5.014l23.704-4.377l-33.089,3.084l43.157-6.99l-61.232,5.347
						L367.09,440.625z"/>
					<path style="fill:#C6BBA3;" d="M373.477,435.926l-37.344,4.084l-0.011-0.109l-76.383,6.927c0,0-43.858-40.71-60.02-63.587
						c-14.606-20.677-43.45-50.101-48.849-55.557l8.77-0.844h0.006c8.368,7.696,22.411,21.314,32.692,34.932
						c15.594,20.648,57.74,73.54,70.381,81.34c0.017,0,0.029,0,0.046-0.006c0.023,0,0.052,0,0.075-0.006
						c0.052,0,0.103-0.006,0.149-0.012c98.427-7.472,110.488-7.174,110.488-7.174V435.926z"/>
					<path style="fill:#AFA287;" d="M325.186,426.731c14.175-3.567,25.134-5.06,33.605-5.186c0.006,0,0.012,0,0.017,0
						c3.877,0.224,6.191,0.574,6.191,0.574s14.927,2.148,20.252,14.336c0,0-4.503-4.612-14.887-8.409
						C354.857,422.372,326.265,426.57,325.186,426.731z"/>
					<path style="fill:#D8D0BC;" d="M354.202,391.299c-13.997-15.668-31.004-34.702-45.225-50.606
						c-0.017-0.023-0.029-0.04-0.046-0.057c-9.999-12.435-17.811-25.226-20.022-28.947c1.597-1.172,3.159-2.211,4.693-3.136h0.006
						c4.434,7.271,52.191,84.154,109.219,119.488c-2.142,1.35-4.118,2.688-5.881,3.952c-5.514-3.498-32.951-30.86-42.697-40.641
						C354.231,391.334,354.219,391.316,354.202,391.299z"/>
					<path style="fill:#E9E5D9;" d="M402.827,428.041c-57.027-35.334-104.785-112.217-109.219-119.488
						c3.205-1.941,6.283-3.372,9.27-4.411c3.94,7.547,41.893,77.629,114.267,115.841l0.155,0.373
						C411.97,422.642,407.06,425.364,402.827,428.041z"/>
					<path style="fill:#C6BBA3;" d="M308.931,340.636c-9.787-10.947-18.241-20.401-23.479-26.254
						c1.172-0.965,2.326-1.861,3.458-2.694C291.121,315.41,298.932,328.201,308.931,340.636z"/>
					<path style="fill:#C6BBA3;" d="M251.6,460.56l18.144-0.816l-30.659,3.923c2.183-9.873,10.413-14.181,10.413-14.181l31.475-3.44
						l0.011,0.126l-30.418,4.934l38.637-1.442l-37.815,4.112l24.663-0.207l-28.362,2.671l34.117-1.022l-30.831,3.9l21.584-1.229
						L251.6,460.56z"/>
					<path style="fill:#9A5FF9;" d="M269.761,459.745l59.026-7.553h0.017l39.177-5.014l2.585,3.142l-135.421,18.155L127.327,343.783
						l8.828-1.034c0.006,0.333,0.017,0.517,0.017,0.517l14.141,16.547l0.052,0.057l71.926,84.148l0.052,0.063l16.742,19.585
						l30.659-3.923H269.761z"/>
					<polygon style="fill:#D8D0BC;" points="323.124,443.502 367.09,440.625 301.344,449.257 362.576,443.91 319.419,450.9 
						352.508,447.815 328.804,452.192 328.787,452.192 269.761,459.745 269.743,459.745 251.6,460.56 272.558,457.89 
						250.973,459.119 281.805,455.219 247.688,456.241 276.05,453.571 251.387,453.777 289.202,449.665 250.566,451.107 
						280.983,446.173 280.972,446.047 316.094,442.204 316.18,442.193 367.303,438.155 					"/>
					<path style="fill:#E9E5D9;" d="M262.84,443.1c-0.023,0.006-0.052,0.006-0.075,0.006
						C262.782,443.106,262.805,443.106,262.84,443.1z"/>
					<path style="fill:#D8D0BC;" d="M237.591,450.664l0.029,0.029L237.591,450.664z"/>
					<path style="fill:#E9E5D9;" d="M279.645,404.521c-29.447-29.441-63.386-99.375-98.605-119.138
						c2.849,1.551,24.99,12.934,54.971,8.943c0,0-10.442,3.957,12.182,40.779C270.823,371.921,309.178,434.054,279.645,404.521z"/>
					<path style="fill:#E9E5D9;" d="M280.972,446.047l-31.475,3.44l-26.535-30.986l-0.011-0.012l-57.257-66.866h-0.006
						l-20.062-23.434l5.244-0.505c5.399,5.456,34.243,34.88,48.849,55.557c16.162,22.876,60.02,63.587,60.02,63.587l76.383-6.927
						l0.011,0.109l-19.953,2.182l-0.086,0.012L280.972,446.047z"/>
					<path style="fill:#D8D0BC;" d="M249.497,449.487c0,0-8.23,4.308-10.413,14.181l-16.742-19.585l-0.052-0.063l-14.037-18.161
						l25.869,28.126l-16.415-19.499l19.913,19.293l-13.158-15.002l13.13,11.889l0.029,0.029l-0.029-0.029l-21.963-24.634
						l23.841,23.227l-14.594-17.265l15.823,14.594l-18.494-23.434l20.964,21.785l-20.206-26.437L249.497,449.487z"/>
					<path style="fill:#FFFFFF;" d="M339.544,417.966c-6.26,0.821-12.165,1.235-17.684,1.35h-0.006
						c-31.17,0.672-49.934-8.156-49.934-8.156l-74.287-102.602l-16.863-23.296c1.62,2.079,53.851,69.095,92.741,122.331
						C273.511,407.594,290.684,421.189,339.544,417.966z"/>
					<path style="fill:#D8D0BC;" d="M331.36,423.48c-18.006,3.733-58.779-3.061-58.779-3.061
						c-3.906-7.805-79.399-103.389-85.86-111.568c4.382-0.597,8.42-0.839,10.913-0.293L271.92,411.16c0,0,18.764,8.828,49.934,8.156
						h0.006c19.516,2.257,39.86-2.694,53.323,4.319c-4.015-1.361-9.333-2.194-16.375-2.091c-0.006,0-0.012,0-0.017,0
						C352.599,421.194,342.428,421.183,331.36,423.48z"/>
					<path style="fill:#F9F8F7;" d="M339.544,417.966c-48.86,3.222-66.033-10.373-66.033-10.373
						c-38.889-53.237-91.121-120.252-92.741-122.331l-0.04-0.052c0,0,0.103,0.063,0.31,0.172
						c35.219,19.763,69.158,89.697,98.605,119.138c29.533,29.533-8.822-32.6-31.452-69.416
						c-22.624-36.822-12.182-40.779-12.182-40.779c18.052-2.401,34.484,3.423,44.742,14.818c0.936,1.04,2.544,2.837,4.698,5.238
						c5.238,5.853,13.693,15.306,23.479,26.254c0.017,0.017,0.029,0.035,0.046,0.057c14.221,15.904,31.228,34.938,45.225,50.606
						c0.017,0.017,0.029,0.035,0.046,0.052c15.295,17.122,26.983,30.211,27.483,30.768v0.006l-0.023,0.017
						c-5.376-5.158-15.6-8.633-34.846-5.284c-2.487,0.431-4.922,0.804-7.306,1.108C339.556,417.966,339.55,417.972,339.544,417.966z
						"/>
					<path style="fill:#D8D0BC;" d="M271.248,434.284c0,0-39.343-29.459-55.471-55.04c-15.421-24.473-50.704-57.59-53.754-60.433
						c4.922-0.638,8.253-0.695,9.695-0.678c10.953,9.391,34.053,30.337,43.364,47.522c12.412,22.905,50.583,58.854,50.583,58.854
						s15.272,13.359,59.491,2.228c0,0,0.012,0,0.029-0.006c1.08-0.161,29.671-4.359,45.179,1.315
						c10.384,3.797,14.887,8.409,14.887,8.409l-0.012,0.012c-2.102-2.056-5.353-3.354-9.339-4.078l0.011-0.052
						c-1.131-0.264-26.759-6.117-51.56-1.281C298.984,436.001,271.248,434.284,271.248,434.284z"/>
					<path style="fill:#E9E5D9;" d="M342.37,434.261c-18.626,3.44-75.005,8.443-79.381,8.828c-0.063,0.006-0.109,0.012-0.149,0.012
						c-0.034,0.006-0.057,0.006-0.075,0.006c-0.017,0.006-0.029,0.006-0.046,0.006c-12.641-7.8-54.787-60.692-70.381-81.34
						c-10.281-13.618-24.324-27.236-32.692-34.932h-0.006c-4.319-3.974-7.128-6.37-7.128-6.37c3.618-0.787,6.806-1.31,9.511-1.66
						c3.05,2.843,38.332,35.96,53.754,60.433c16.128,25.582,55.471,55.04,55.471,55.04s27.736,1.717,53.105-3.228
						c24.801-4.836,50.428,1.017,51.56,1.281l-0.011,0.052C366.918,430.769,354.19,432.078,342.37,434.261z"/>
					<polygon style="fill:#F9F8F7;" points="143.897,330.458 173.011,364.086 145.746,330.257 165.682,351.629 165.688,351.623 
						165.694,351.623 222.951,418.489 222.962,418.501 243.168,444.938 222.204,423.153 240.698,446.586 224.875,431.992 
						239.469,449.257 215.628,426.03 237.591,450.664 224.461,438.775 237.62,453.777 217.707,434.485 234.122,453.984 
						208.253,425.858 222.29,444.019 150.364,359.871 176.371,387.801 137.935,341.56 167.066,373.155 138.55,338.89 
						158.87,360.841 139.63,336.483 172.672,374.442 141.019,334.157 166.871,364.523 142.105,332.175 162.776,357.142 					"/>
					<path style="fill:#D8D0BC;" d="M136.178,341.727c0.178-3.262,1.465-10.786,9.448-13.538l20.062,23.434l-0.006,0.006
						l-19.936-21.372l27.264,33.829l-29.114-33.628l18.879,26.684l-20.671-24.967l24.766,32.347l-25.852-30.366l31.653,40.285
						l-33.042-37.959l19.241,24.358L138.55,338.89l28.517,34.266l-29.131-31.595l38.436,46.241l-26.007-27.931l-0.052-0.057
						l-14.141-16.547c0,0-0.012-0.184-0.017-0.517C136.155,342.491,136.155,342.14,136.178,341.727z"/>
					<path style="fill:#8338EA;" d="M127.327,343.783c-0.425-0.494-1.022-0.764-1.631-0.793l10.482-1.263
						c-0.023,0.414-0.023,0.764-0.023,1.022L127.327,343.783z"/>
				</g>
			</g>
		</g>
		<g>
			<g id="XMLID_170_">
				<g>
					<path style="fill:#C6BBA3;" d="M411.927,207.293l26.345,1.002c0,0-2.026,3.293-3.157,6.294
						c-0.245,0.643-0.447,1.272-0.579,1.851l-10.493-0.517l-0.006-0.001l-11.653-1.531l18.909,0.667l-23.465-2.266l23.777,0.518
						l-18.297-1.568l21.248,0.18l-17.298-1.503l18.095,0.183l-20.351-2.05l20.932,0.689L411.927,207.293z"/>
					<path style="fill:#5C9EFF;" d="M371.909,214.768c0.401-0.412,0.827-0.872,1.244-1.362l28.95,1.431l21.936,1.085l0.006,0.001
						l10.493,0.517c0.132-0.579,0.334-1.209,0.579-1.851l3.183,4.316L371.909,214.768z"/>
					<path style="fill:#F9F8F7;" d="M438.023,196.973c0,0-1.463,0.932-3.943,1.979c-2.339,0.988-5.585,2.08-9.361,2.586
						c-1.111-1.191-23.688-25.492-31.401-42.529c-6.948-15.349-5.008-23.927-4.435-25.779c4.962-1.884,7.83-4.037,7.83-4.037
						C397.909,141.137,438.023,196.973,438.023,196.973z"/>
					<polygon style="fill:#D8D0BC;" points="383.183,212.9 397.51,213.205 377.813,211.271 391.111,211.839 378.651,209.733 
						396.122,210.253 379.797,208.359 403.393,208.622 378.79,207.053 401.247,206.887 411.927,207.293 435.936,209.239 
						415.004,208.551 435.355,210.601 417.26,210.417 434.558,211.921 413.31,211.74 431.607,213.309 407.83,212.791 
						431.295,215.057 412.386,214.39 424.039,215.922 402.103,214.837 					"/>
					<path style="fill:#C6BBA3;" d="M376.497,205.947l24.75,0.94l-22.457,0.166l24.603,1.568l-23.596-0.263l16.325,1.895
						l-17.47-0.521l12.46,2.107l-13.298-0.568l19.697,1.934l-14.327-0.305l18.92,1.937l-28.95-1.431
						c1.152-1.347,2.255-2.922,2.68-4.381c0,0,0,0,0.001-0.003C376.331,208.1,376.707,206.992,376.497,205.947z"/>
					<path style="fill:#F9F8F7;" d="M408.171,199.192c-5.05-1.589-10.482-1.216-15.4-0.068l-0.043-0.196
						c-32.036-24.969-44.48-62.515-45.748-66.545c3.682-0.583,6.936-0.14,10.207,0.611c3.167,1.841,18.52,12.784,51.042,66.017
						L408.171,199.192z"/>
					<path style="fill:#C6BBA3;" d="M376.497,205.947c0-0.003-0.001-0.009-0.004-0.012l0-0.003
						c1.127-0.245,22.349-4.797,36.34-1.352c11.375,2.799,20.191,1.061,23.374,0.212l2.066,3.504l-26.345-1.002l-10.681-0.406
						L376.497,205.947z"/>
					<path style="fill:#A0A9F9;" d="M376.493,205.935c0.002,0.003,0.004,0.01,0.004,0.012l-0.049-0.003
						c0.003-0.002,0.003-0.002,0.007-0.005C376.461,205.941,376.476,205.937,376.493,205.935z"/>
					<path style="fill:#D8D0BC;" d="M376.491,205.917c0.314-0.202,2.305-1.445,5.322-2.877l0-0.003
						c0.971-0.464,2.053-0.946,3.217-1.419c2.301-0.939,4.938-1.842,7.741-2.495c4.918-1.148,10.35-1.521,15.4,0.068
						c0.535,0.168,1.066,0.358,1.589,0.57c5.314,2.157,10.507,2.373,14.959,1.776c3.776-0.506,7.022-1.598,9.361-2.586l3.418,5.453
						c0,0-0.449,0.163-1.291,0.387c-3.183,0.849-11.999,2.588-23.374-0.212c-13.99-3.445-35.213,1.107-36.34,1.352
						C376.494,205.929,376.493,205.923,376.491,205.917z"/>
					<path style="fill:#AFA287;" d="M375.225,196.898c2.761,3.795,1.487,8.233,1.252,8.947c0.223-0.748,1.364-5.513-4.57-8.785
						c-5.967-4.598-16.338-3.95-25.677-6.751c2.707,0.424,5.628,0.736,8.758,0.88c0.002,0.003,0.006,0.001,0.006,0.001
						c1.191,0.059,2.413,0.088,3.666,0.094C368.355,191.323,373.047,193.911,375.225,196.898z"/>
					<path style="fill:#7BB7FF;" d="M374.378,205.228c-1.175-0.618-2.372-0.692-3.466-0.212c-1.976,0.867-3.1,3.325-3.584,4.68
						l-0.989-1.76c0,0,2.318-4.854,5.999-4.861c0.006,0.001,0.017,0,0.026,0.002c0.003,0,0.009-0.001,0.012-0.001l0.469,0.032
						l0.003,0c0.499,0.057,1.025,0.212,1.568,0.476c0.946,0.461,1.522,1.03,1.832,1.644c0.002,0.003,0.005,0.007,0.004,0.009
						c0.087,0.227,0.149,0.464,0.193,0.706l0.003,0.001l0.049,0.003c0.21,1.045-0.166,2.153-0.664,3.075
						c0.155-0.531,0.218-1.047,0.163-1.532C375.916,206.805,375.57,205.854,374.378,205.228z"/>
					<path style="fill:#E9E5D9;" d="M408.229,199.011c-32.522-53.233-47.875-64.176-51.042-66.017
						c4.875,1.123,9.789,2.925,16.218,2.996c6.233,0.068,11.519-1.26,15.478-2.761c-0.573,1.852-2.512,10.43,4.435,25.779
						c7.712,17.038,30.29,41.338,31.401,42.529c-4.452,0.597-9.646,0.381-14.959-1.776c-0.524-0.212-1.055-0.402-1.589-0.57
						L408.229,199.011z"/>
					<path style="fill:#A0A9F9;" d="M372.376,203.076c-0.003,0-0.009,0.001-0.012,0.001L372.376,203.076z"/>
					<path style="fill:#195ABA;" d="M368.48,214.884c-0.346,0.303-0.479,0.786-0.328,1.224l-2.819-4.217l2.767,0.119
						c0.534,0.023,1.011-0.329,1.149-0.843c0.048-0.174,0.124-0.421,0.23-0.706c1.189,0.38,0.656,2.821,0.656,2.821l0.012,0.011
						C369.573,213.883,369.001,214.43,368.48,214.884z"/>
					<path style="fill:#0F4B93;" d="M373.731,207.756c0.141,1.206-1.711,3.607-3.584,5.537l-0.012-0.011
						c0,0,0.533-2.441-0.656-2.821l0.001-0.003c0.412-1.125,1.253-2.875,2.352-3.356c0.283-0.123,0.747-0.243,1.483,0.143
						C373.665,207.429,373.712,207.605,373.731,207.756z"/>
					<path style="fill:#AFA287;" d="M315.397,196.8c2.172,0.193,30.154,2.656,39.554,2.596c5.965-0.038,12.298,0.43,16.546,2.004
						c1.884,0.701,3.36,1.618,4.208,2.805c0.23,0.319,0.415,0.662,0.544,1.023c-0.31-0.614-0.887-1.183-1.832-1.644
						c-0.543-0.265-1.069-0.419-1.568-0.476l-0.003,0c-0.159-0.02-0.316-0.03-0.469-0.032l-0.012,0.001
						c-0.008-0.002-0.02-0.001-0.026-0.002l-2.334-0.158l0.001-0.006C370.005,202.911,364.138,201.716,315.397,196.8z"/>
					<path style="fill:#3887FE;" d="M369.158,216.881c-0.458-0.029-0.858-0.335-1.006-0.773c-0.151-0.438-0.018-0.921,0.328-1.224
						c0.521-0.454,1.093-1.001,1.667-1.591c1.873-1.931,3.725-4.331,3.584-5.537c-0.019-0.151-0.066-0.327-0.416-0.511
						c-0.736-0.386-1.201-0.266-1.483-0.143c-1.099,0.482-1.941,2.231-2.352,3.356l-0.001,0.003
						c-0.106,0.285-0.182,0.532-0.23,0.706c-0.138,0.514-0.615,0.866-1.149,0.843l-2.767-0.119l-0.003-0.001l-66.462-2.858
						c-0.052-0.003-0.103-0.01-0.15-0.018c-0.326-0.058-0.61-0.251-0.781-0.539l-42.14-70.839c-0.321-0.541-0.144-1.242,0.397-1.562
						c0.262-0.156,0.559-0.196,0.834-0.132c0.295,0.067,0.563,0.251,0.728,0.529l41.826,70.308l67.746,2.916
						c0.485-1.355,1.609-3.813,3.584-4.68c1.093-0.48,2.29-0.406,3.466,0.212c1.191,0.626,1.537,1.577,1.618,2.263
						c0.056,0.485-0.007,1-0.163,1.532c-0.001,0.003-0.001,0.003-0.001,0.003c-0.425,1.459-1.528,3.034-2.68,4.381
						c-0.417,0.49-0.844,0.95-1.244,1.362l66.391,4.137c0.628,0.034,1.104,0.582,1.064,1.209c-0.037,0.63-0.579,1.107-1.206,1.068
						L369.158,216.881z"/>
					<path style="fill:#9B8D75;" d="M371.907,197.06c5.935,3.272,4.793,8.037,4.57,8.785c-0.05-0.206-0.124-0.41-0.225-0.608
						c0-0.003-0.002-0.006-0.004-0.009c-0.129-0.362-0.315-0.705-0.544-1.023l0.007-0.005c-1.541-6.418-8.647-8.767-8.647-8.767
						s-1.1-0.373-2.975-0.82C367.538,195.176,370.064,196.046,371.907,197.06z"/>
					<path style="fill:#C6BBA3;" d="M381.812,203.04c-3.017,1.431-5.008,2.675-5.322,2.877c-0.005-0.021-0.009-0.045-0.014-0.066
						c0-0.003,0-0.003,0.001-0.006c0.234-0.714,1.508-5.151-1.252-8.947l0.013-0.006l0.001-0.003
						c-0.196-0.316-4.767-7.729-10.75-17.425c3.911,5.627,14.935,21.384,17.324,23.573L381.812,203.04z"/>
					<path style="fill:#E9E5D9;" d="M364.08,194.612c-4.15-0.676-9.634-0.9-16.871-0.391c-0.009,0.001-0.015,0-0.015,0
						c-22.574,1.59-28.873-6.267-28.873-6.267s-15.521-20.887-19.592-33.158c-3.053-9.207-12.517-21.452-17.051-26.993
						c-1.51-1.844-2.472-2.945-2.472-2.945s5.781-0.484,10.61-0.284c2.445,4.559,31.011,57.831,32.24,61.985
						c0,0,19.33,6.869,28.453,6.612C356.117,193.011,361.086,193.902,364.08,194.612z"/>
					<path style="fill:#C6BBA3;" d="M366.475,204.657l-21.732-2.421l22.051,1.233l-25.33-2.477l9.939,0.67l18.602,1.255l2.334,0.158
						c-3.681,0.007-5.999,4.861-5.999,4.861l-19.578-0.96l11.962-0.075l-16.435-1.373l21.695,0.341l-30.383-2.717L366.475,204.657z"
						/>
					<path style="fill:#C6BBA3;" d="M370.004,202.917l-18.602-1.255l0.004-0.054l-37.923-3.264c0,0-17.885-23.708-23.791-36.292
						c-5.337-11.374-16.869-28.261-19.032-31.397l4.359,0.351l0.003,0c3.419,4.489,9.095,12.365,12.933,19.913
						c5.822,11.446,21.811,40.957,27.308,45.868c0.008,0.001,0.014,0.002,0.023,0.001c0.011,0.002,0.025,0.005,0.037,0.004
						c0.025,0.005,0.051,0.006,0.074,0.007c48.741,4.916,54.608,6.112,54.608,6.112L370.004,202.917z"/>
					<path style="fill:#AFA287;" d="M347.209,194.221c7.236-0.509,12.721-0.285,16.871,0.391c0.003,0.001,0.006,0.001,0.008,0.002
						c1.875,0.447,2.975,0.82,2.975,0.82s7.107,2.349,8.647,8.767c0,0-1.799-2.645-6.542-5.404
						C362.086,194.674,347.751,194.236,347.209,194.221z"/>
					<path style="fill:#D8D0BC;" d="M364.47,179.435c-5.475-8.874-12.128-19.654-17.692-28.662c-0.006-0.013-0.01-0.022-0.017-0.032
						c-3.803-6.946-6.507-13.875-7.263-15.886c0.882-0.433,1.736-0.805,2.566-1.124l0.003,0.001
						c1.534,3.939,18.176,45.66,42.964,67.888c-1.164,0.473-2.246,0.955-3.217,1.419c-2.39-2.189-13.414-17.946-17.324-23.573
						C364.482,179.454,364.478,179.445,364.47,179.435z"/>
					<path style="fill:#E9E5D9;" d="M385.03,201.619c-24.788-22.228-41.43-63.949-42.964-67.888c1.735-0.67,3.363-1.1,4.913-1.348
						c1.268,4.03,13.712,41.576,45.748,66.545l0.043,0.196C389.968,199.777,387.332,200.679,385.03,201.619z"/>
					<path style="fill:#C6BBA3;" d="M346.761,150.74c-3.829-6.201-7.137-11.555-9.187-14.871c0.656-0.369,1.298-0.707,1.924-1.015
						C340.255,136.865,342.958,143.795,346.761,150.74z"/>
					<path style="fill:#C6BBA3;" d="M308.311,204.345l8.936,1.181l-15.321-0.752c1.926-4.634,6.322-6.022,6.322-6.022l15.678,1.059
						l-0.005,0.063l-15.291-0.237l19.003,2.658l-18.834-1.282l12.068,2.046l-14.09-1.164l16.758,2.47l-15.403-0.778l10.653,1.278
						L308.311,204.345z"/>
					<path style="fill:#5C9EFF;" d="M317.255,205.527l29.497,1.447l0.008,0.002l19.578,0.96l0.989,1.76l-67.746-2.916
						l-41.826-70.308l4.403,0.263c-0.026,0.163-0.037,0.254-0.037,0.254l5.469,9.316l0.02,0.033l27.819,47.375l0.02,0.035
						l6.476,11.027l15.321,0.752L317.255,205.527z"/>
					<polygon style="fill:#D8D0BC;" points="344.742,202.236 366.475,204.657 333.6,203.152 363.983,205.869 342.288,205.528 
						358.724,206.901 346.761,206.976 346.753,206.975 317.255,205.527 317.247,205.526 308.311,204.345 318.784,204.864 
						308.131,203.586 323.534,204.364 306.776,201.894 320.866,203.058 308.798,201.012 327.632,202.294 308.629,199.636 
						323.92,199.873 323.926,199.81 341.42,200.99 341.463,200.992 366.793,203.469 					"/>
					<path style="fill:#E9E5D9;" d="M315.323,196.792c-0.012,0.001-0.026-0.002-0.037-0.004
						C315.294,196.79,315.305,196.792,315.323,196.792z"/>
					<path style="fill:#D8D0BC;" d="M302.328,198.291l0.012,0.017L302.328,198.291z"/>
					<path style="fill:#E9E5D9;" d="M326.892,179.406c-11.825-16.948-22.32-54.071-37.808-66.793
						c1.257,1.006,11.084,8.495,26.08,9.154c0,0-5.446,1.025,2.403,20.985C325.419,162.709,338.751,196.406,326.892,179.406z"/>
					<path style="fill:#E9E5D9;" d="M323.926,199.81l-15.678-1.059l-10.268-17.449l-0.005-0.007l-22.156-37.654l-0.003-0.001
						l-7.763-13.196l2.606,0.21c2.163,3.136,13.695,20.023,19.032,31.397c5.906,12.584,23.791,36.292,23.791,36.292l37.923,3.264
						l-0.004,0.054l-9.939-0.67l-0.043-0.002L323.926,199.81z"/>
					<path style="fill:#D8D0BC;" d="M308.248,198.752c0,0-4.396,1.388-6.322,6.022l-6.476-11.027l-0.02-0.035l-5.278-10.095
						l10.191,15.994l-6.323-10.956l8.05,11.159l-5.123-8.475l5.38,6.952l0.012,0.017l-0.012-0.017l-8.587-13.948l9.627,13.424
						l-5.628-9.706l6.461,8.508l-6.997-13.059l8.347,12.469l-7.571-14.676L308.248,198.752z"/>
					<path style="fill:#FFFFFF;" d="M354.988,191.189c-3.13-0.144-6.051-0.456-8.758-0.88l-0.003-0.001
						c-15.288-2.385-23.688-8.331-23.688-8.331l-27.366-56.597l-6.211-12.85c0.61,1.157,20.298,38.446,34.665,67.842
						C323.627,180.373,330.835,188.51,354.988,191.189z"/>
					<path style="fill:#D8D0BC;" d="M350.509,193.17c-9.123,0.257-28.453-6.612-28.453-6.612
						c-1.229-4.154-29.795-57.426-32.24-61.985c2.193,0.09,4.187,0.323,5.357,0.807l27.366,56.597c0,0,8.4,5.946,23.688,8.331
						l0.003,0.001c9.339,2.802,19.71,2.153,25.677,6.751c-1.843-1.015-4.369-1.884-7.819-2.447
						c-0.003-0.001-0.006-0.001-0.008-0.002C361.086,193.902,356.117,193.011,350.509,193.17z"/>
					<path style="fill:#F9F8F7;" d="M354.988,191.189c-24.153-2.678-31.361-10.816-31.361-10.816
						c-14.368-29.396-34.055-66.686-34.665-67.842l-0.015-0.029c0,0,0.045,0.04,0.137,0.111
						c15.488,12.722,25.983,49.845,37.808,66.793c11.859,17-1.473-16.696-9.325-36.654c-7.849-19.96-2.403-20.985-2.403-20.985
						c9.029,0.398,16.551,4.674,20.571,11.134c0.367,0.589,0.996,1.608,1.84,2.968c2.05,3.315,5.358,8.67,9.187,14.871
						c0.007,0.01,0.011,0.019,0.017,0.032c5.564,9.008,12.217,19.788,17.692,28.662c0.007,0.01,0.011,0.019,0.018,0.029
						c5.983,9.697,10.554,17.109,10.75,17.425l-0.001,0.003l-0.013,0.006c-2.178-2.988-6.87-5.576-16.566-5.615
						c-1.253-0.006-2.475-0.036-3.666-0.094C354.993,191.189,354.99,191.192,354.988,191.189z"/>
					<path style="fill:#D8D0BC;" d="M320.198,193.217c0,0-16.659-17.818-22.312-31.721c-5.405-13.3-19.761-32.551-21.004-34.206
						c2.461,0.117,4.093,0.379,4.796,0.513c4.534,5.542,13.998,17.787,17.051,26.993c4.071,12.272,19.592,33.158,19.592,33.158
						s6.299,7.857,28.873,6.267c0,0,0.006,0.001,0.015,0c0.542,0.015,14.877,0.453,21.96,4.575c4.743,2.759,6.542,5.404,6.542,5.404
						l-0.007,0.005c-0.848-1.188-2.323-2.105-4.208-2.805l0.01-0.024c-0.53-0.228-12.542-5.318-25.08-5.113
						C333.6,196.47,320.198,193.217,320.198,193.217z"/>
					<path style="fill:#E9E5D9;" d="M354.95,199.396c-9.4,0.06-37.382-2.403-39.554-2.596c-0.031-0.003-0.054-0.004-0.074-0.007
						c-0.017,0-0.029-0.002-0.037-0.004c-0.009,0.001-0.014,0-0.023-0.001c-5.498-4.911-21.486-34.422-27.308-45.868
						c-3.838-7.548-9.514-15.424-12.933-19.913l-0.003,0c-1.764-2.318-2.928-3.733-2.928-3.733c1.836-0.069,3.439-0.048,4.792,0.017
						c1.243,1.655,15.599,20.906,21.004,34.206c5.653,13.903,22.312,31.721,22.312,31.721s13.402,3.253,26.228,3.045
						c12.538-0.204,24.55,4.886,25.08,5.113l-0.01,0.024C367.248,199.826,360.916,199.358,354.95,199.396z"/>
					<polygon style="fill:#F9F8F7;" points="267.012,131.404 278.31,150.368 267.933,131.466 275.814,143.644 275.817,143.641 
						275.82,143.642 297.975,181.296 297.98,181.302 305.551,195.978 297.205,183.51 304.201,196.569 297.74,188.061 
						303.368,197.767 293.741,184.343 302.328,198.291 296.948,191.339 302.071,199.814 294.021,188.655 300.344,199.611 
						290.153,183.617 295.431,193.712 267.612,146.337 277.888,162.248 263.133,136.309 274.616,154.282 263.666,135.058 
						271.684,147.552 264.403,133.976 277.243,155.398 265.284,132.96 275.272,150.047 265.987,132.087 273.914,146.085 					"/>
					<path style="fill:#D8D0BC;" d="M262.26,136.238c0.371-1.578,1.654-5.143,5.795-5.792l7.763,13.196l-0.003,0.002l-7.88-12.177
						l10.377,18.902l-11.298-18.965l6.902,14.681l-7.927-13.998l9.285,17.96l-9.988-17.087l11.959,22.438l-12.841-21.423
						l7.281,13.576l-8.018-12.494l10.951,19.224l-11.483-17.973l14.755,25.938l-10.276-15.91l-0.02-0.033l-5.469-9.316
						c0,0,0.01-0.091,0.037-0.254C262.182,136.609,262.212,136.438,262.26,136.238z"/>
					<path style="fill:#3887FE;" d="M257.756,136.472c-0.165-0.278-0.433-0.462-0.728-0.529l5.231,0.295
						c-0.047,0.2-0.078,0.371-0.1,0.498L257.756,136.472z"/>
				</g>
			</g>
		</g>
		<g>
			<g id="XMLID_171_">
				<g>
					<path style="fill:#C6BBA3;" d="M228.371,217.425l28.55-16.165c0,0,0.008,4.811,0.773,8.728c0.161,0.84,0.359,1.639,0.598,2.339
						l-11.448,6.313l-0.007,0.003l-13.34,5.997l20.457-11.657l-26.327,12.942l25.514-14.997l-20.398,10.302l22.616-13.701
						l-19.298,9.718l19.279-11.637l-22.888,11.135l22.613-12.956L228.371,217.425z"/>
					<path style="fill:#878CF0;" d="M190.887,251.505c0.155-0.698,0.306-1.464,0.427-2.256l31.588-17.413l23.935-13.193l0.007-0.003
						l11.448-6.313c-0.239-0.699-0.437-1.498-0.598-2.339l6.193,2.489L190.887,251.505z"/>
					<path style="fill:#F9F8F7;" d="M249.254,189.437c0,0-0.94,1.944-2.881,4.673c-1.831,2.575-4.553,5.854-8.221,8.858
						c-1.955-0.535-41.748-11.503-61.053-24.5c-17.392-11.71-20.947-22.06-21.551-24.396c4.022-5.239,5.651-9.393,5.651-9.393
						C170.275,156.544,249.254,189.437,249.254,189.437z"/>
					<polygon style="fill:#D8D0BC;" points="201.602,242.155 216.971,233.112 194.852,243.942 209.303,235.849 194.734,241.765 
						213.572,230.894 195.048,239.561 220.204,224.412 193.128,238.837 216.797,223.979 228.371,217.425 255.064,203.789 
						232.451,216.745 255.339,205.61 236.06,217.247 255.359,207.529 232.743,221.23 253.141,210.928 227.627,225.926 
						253.954,212.983 233.497,224.64 246.837,218.643 222.902,231.836 					"/>
					<path style="fill:#C6BBA3;" d="M189.977,239.165l26.82-15.186l-23.669,14.858l27.075-14.425l-25.156,15.149l18.524-8.667
						l-18.838,10.871l14.57-5.916l-14.452,8.093l22.119-10.831l-15.369,9.044l21.3-10.319l-31.588,17.413
						c0.339-2.179,0.477-4.568-0.027-6.391c0,0,0,0-0.001-0.003C191.209,241.554,190.883,240.134,189.977,239.165z"/>
					<path style="fill:#F9F8F7;" d="M219.097,211.304c-6.386,1.62-11.893,5.566-16.35,9.996l-0.174-0.179
						c-50.245-5.492-87.968-37.109-91.946-40.548c3.518-3.025,7.253-4.683,11.207-6.027c4.556-0.121,27.967,1.427,97.207,36.527
						L219.097,211.304z"/>
					<path style="fill:#C6BBA3;" d="M189.977,239.165c-0.001-0.003-0.007-0.009-0.012-0.011l-0.001-0.003
						c1.033-0.996,20.527-19.692,37.592-25.191c13.874-4.473,22.072-12.078,24.887-15.058l4.478,2.359l-28.55,16.165l-11.574,6.554
						L189.977,239.165z"/>
					<path style="fill:#A0A9F9;" d="M189.965,239.154c0.005,0.002,0.011,0.007,0.012,0.011l-0.053,0.029
						c0.002-0.005,0.002-0.005,0.004-0.009C189.934,239.182,189.948,239.169,189.965,239.154z"/>
					<path style="fill:#D8D0BC;" d="M189.951,239.137c0.201-0.419,1.495-3.037,3.754-6.525l-0.001-0.003
						c0.725-1.126,1.556-2.344,2.479-3.606c1.822-2.499,4.023-5.179,6.565-7.703c4.457-4.431,9.964-8.377,16.35-9.996
						c0.676-0.172,1.362-0.318,2.055-0.436c7.036-1.191,12.676-4.358,17-7.9c3.667-3.004,6.39-6.283,8.221-8.858l7.184,3.539
						c0,0-0.369,0.466-1.114,1.253c-2.815,2.98-11.012,10.585-24.887,15.058c-17.065,5.5-36.56,24.195-37.592,25.191
						C189.963,239.148,189.957,239.143,189.951,239.137z"/>
					<path style="fill:#AFA287;" d="M182.715,230.416c5.404,2.214,6.957,7.745,7.176,8.654c-0.253-0.938-2.16-6.729-10.583-6.313
						c-9.325-0.967-19.882,6.5-31.602,9.64c3.143-1.32,6.44-2.9,9.848-4.795c0.005,0.002,0.007-0.003,0.007-0.003
						c1.3-0.717,2.613-1.484,3.943-2.297C171.795,229.004,178.455,228.676,182.715,230.416z"/>
					<path style="fill:#A0A9F9;" d="M187.264,239.789c-1.649,0.115-2.964,0.819-3.808,2.041c-1.525,2.21-1.108,5.547-0.735,7.299
						l-2.198-1.217c0,0-0.719-6.655,3.174-9.069c0.007-0.003,0.018-0.011,0.028-0.015c0.003-0.001,0.009-0.007,0.012-0.009
						l0.517-0.273l0.003-0.001c0.566-0.266,1.223-0.446,1.972-0.521c1.303-0.13,2.285,0.095,3.015,0.542
						c0.005,0.002,0.009,0.004,0.01,0.007c0.241,0.183,0.461,0.394,0.666,0.622l0.003-0.001l0.053-0.029
						c0.906,0.969,1.232,2.389,1.308,3.69c-0.183-0.664-0.453-1.251-0.829-1.728C189.923,240.453,188.935,239.673,187.264,239.789z"
						/>
					<path style="fill:#E9E5D9;" d="M219.04,211.074c-69.239-35.1-92.65-36.649-97.207-36.527
						c5.896-1.998,12.277-3.303,19.131-7.431c6.644-4.003,11.372-8.866,14.583-13.043c0.604,2.336,4.159,12.686,21.551,24.396
						c19.305,12.997,59.098,23.965,61.053,24.5c-4.324,3.543-9.964,6.71-17,7.9c-0.693,0.118-1.38,0.264-2.055,0.436L219.04,211.074
						z"/>
					<path style="fill:#A0A9F9;" d="M183.737,238.82c-0.003,0.001-0.009,0.007-0.012,0.009L183.737,238.82z"/>
					<path style="fill:#384382;" d="M187.332,253.869c-0.169,0.548,0.007,1.146,0.453,1.511l-5.742-2.622l3.008-1.683
						c0.581-0.325,0.855-1.01,0.665-1.644c-0.063-0.216-0.144-0.527-0.218-0.898c1.507-0.375,2.538,2.558,2.538,2.558l0.021,0.003
						C187.835,252.094,187.587,253.047,187.332,253.869z"/>
					<path style="fill:#2A3568;" d="M188.232,242.889c0.938,1.185,0.547,4.938-0.174,8.206l-0.021-0.003
						c0,0-1.031-2.934-2.538-2.558l-0.001-0.003c-0.3-1.461-0.553-3.863,0.296-5.092c0.219-0.315,0.632-0.746,1.664-0.819
						C187.947,242.585,188.112,242.742,188.232,242.889z"/>
					<path style="fill:#AFA287;" d="M119.303,269.428c2.426-1.216,33.663-16.903,43.577-23.112
						c6.292-3.94,13.303-7.585,18.829-8.697c2.453-0.49,4.615-0.484,6.29,0.219c0.452,0.187,0.872,0.429,1.245,0.728
						c-0.73-0.447-1.712-0.673-3.015-0.542c-0.749,0.075-1.406,0.255-1.972,0.521l-0.003,0.001
						c-0.181,0.083-0.354,0.175-0.517,0.273l-0.012,0.009c-0.01,0.004-0.022,0.012-0.028,0.015l-2.575,1.359l-0.003-0.007
						C181.119,240.195,174.125,242.766,119.303,269.428z"/>
					<path style="fill:#727BCE;" d="M189.356,255.54c-0.504,0.268-1.128,0.206-1.57-0.16c-0.446-0.365-0.622-0.963-0.453-1.511
						c0.255-0.822,0.503-1.775,0.725-2.774c0.721-3.268,1.112-7.021,0.174-8.206c-0.119-0.147-0.284-0.303-0.774-0.27
						c-1.032,0.073-1.445,0.503-1.664,0.819c-0.849,1.229-0.596,3.631-0.296,5.092l0.001,0.003c0.074,0.371,0.156,0.682,0.218,0.898
						c0.19,0.634-0.085,1.319-0.665,1.644l-3.008,1.683l-0.003,0.001l-72.239,40.428c-0.057,0.03-0.115,0.057-0.171,0.079
						c-0.383,0.152-0.809,0.134-1.18-0.059l-90.934-47.453c-0.693-0.363-0.964-1.221-0.601-1.914
						c0.176-0.337,0.464-0.573,0.797-0.686c0.356-0.122,0.76-0.103,1.117,0.084l90.254,47.096l73.637-41.206
						c-0.373-1.752-0.79-5.089,0.735-7.299c0.844-1.223,2.16-1.927,3.808-2.041c1.671-0.116,2.659,0.664,3.192,1.338
						c0.376,0.477,0.646,1.064,0.829,1.728c0.001,0.003,0.001,0.003,0.001,0.003c0.504,1.822,0.366,4.212,0.027,6.391
						c-0.121,0.792-0.272,1.558-0.427,2.256l73-39.027c0.687-0.375,1.549-0.106,1.917,0.584c0.373,0.692,0.11,1.551-0.579,1.919
						L189.356,255.54z"/>
					<path style="fill:#9B8D75;" d="M179.307,232.756c8.423-0.416,10.33,5.376,10.583,6.313c-0.188-0.185-0.399-0.353-0.635-0.496
						c-0.001-0.003-0.006-0.005-0.01-0.007c-0.374-0.298-0.794-0.54-1.245-0.728l0.004-0.009
						c-5.828-5.788-14.888-3.629-14.888-3.629s-1.409,0.325-3.686,1.077C173.449,233.618,176.693,232.887,179.307,232.756z"/>
					<path style="fill:#C6BBA3;" d="M193.705,232.612c-2.259,3.488-3.553,6.106-3.754,6.525c-0.019-0.019-0.039-0.042-0.058-0.061
						c-0.001-0.003-0.001-0.003-0.003-0.007c-0.219-0.909-1.771-6.44-7.176-8.654l0.009-0.015l-0.001-0.003
						c-0.414-0.206-10.1-5.066-22.775-11.421c7.82,3.401,29.795,12.877,33.756,13.633L193.705,232.612z"/>
					<path style="fill:#E9E5D9;" d="M169.419,235.282c-4.836,1.998-10.789,5.347-18.118,10.617c-0.009,0.007-0.015,0.01-0.015,0.01
						c-22.862,16.443-34.668,12.243-34.668,12.243s-30.09-11.967-42.424-22.299c-9.252-7.752-27.278-14.529-35.702-17.432
						c-2.804-0.965-4.543-1.502-4.543-1.502s5.805-4.293,11.048-7.238c5.569,3.228,70.646,40.956,74.663,44.551
						c0,0,24.958-5.366,34.449-11.602C159.941,238.793,165.784,236.488,169.419,235.282z"/>
					<path style="fill:#C6BBA3;" d="M178.522,244.352l-24.593,11.646l24.154-13.112l-28.439,13.939l10.962-5.788l20.516-10.833
						l2.575-1.359c-3.893,2.414-3.174,9.069-3.174,9.069l-21.357,11.784l12.617-7.901l-18.299,9.292l23.193-13.823l-33.946,16.988
						L178.522,244.352z"/>
					<path style="fill:#C6BBA3;" d="M181.122,240.202l-20.516,10.833l-0.031-0.06l-42.287,21.339c0,0-34.438-13.409-48.918-22.871
						c-13.087-8.553-36.338-18.894-40.678-20.8l4.844-2.478l0.003-0.001c6.555,2.517,17.714,7.145,26.713,12.629
						c13.648,8.312,49.871,29.105,58.903,30.711c0.01-0.004,0.016-0.007,0.025-0.014c0.013-0.005,0.03-0.012,0.041-0.02
						c0.03-0.012,0.058-0.027,0.083-0.041c54.822-26.663,61.816-29.233,61.816-29.233L181.122,240.202z"/>
					<path style="fill:#AFA287;" d="M151.301,245.898c7.329-5.27,13.283-8.618,18.118-10.617c0.003-0.001,0.007-0.003,0.01-0.004
						c2.277-0.753,3.686-1.077,3.686-1.077s9.06-2.159,14.888,3.629c0,0-3.634-1.625-10.46-1.445
						C167.348,236.651,151.884,245.56,151.301,245.898z"/>
					<path style="fill:#D8D0BC;" d="M159.91,218.957c-11.599-5.816-25.691-12.88-37.472-18.781
						c-0.015-0.009-0.026-0.016-0.039-0.023c-8.568-4.868-15.961-10.437-18.077-12.072c0.651-1.036,1.311-1.988,1.982-2.867
						l0.003-0.001c4.199,3.168,49.098,36.461,89.876,43.789c-0.923,1.262-1.754,2.48-2.479,3.606
						c-3.961-0.755-25.936-10.231-33.756-13.633C159.934,218.97,159.923,218.963,159.91,218.957z"/>
					<path style="fill:#E9E5D9;" d="M196.183,229.003c-40.778-7.328-85.678-40.622-89.876-43.789
						c1.399-1.843,2.842-3.364,4.321-4.64c3.978,3.438,41.701,35.055,91.946,40.548l0.174,0.179
						C200.206,223.824,198.005,226.504,196.183,229.003z"/>
					<path style="fill:#C6BBA3;" d="M122.398,200.154c-8.108-4.062-15.112-7.569-19.45-9.739c0.453-0.82,0.913-1.597,1.373-2.333
						C106.437,189.717,113.83,195.286,122.398,200.154z"/>
					<path style="fill:#C6BBA3;" d="M116.734,282.05l10.234-4.592l-16.714,9.221c-0.991-6.165,2.756-10.51,2.756-10.51l17.292-9.13
						l0.035,0.07l-16.345,9.747l21.859-9.61l-20.78,10.957l14.115-5.724l-15.679,7.98l19.359-8.342l-16.818,9.247l12.115-5.612
						L116.734,282.05z"/>
					<path style="fill:#878CF0;" d="M126.978,277.454l32.178-17.753l0.01-0.004l21.357-11.784l2.198,1.217l-73.637,41.206
						L18.83,243.239l4.834-2.6c0.079,0.19,0.127,0.293,0.127,0.293l11.881,6.288l0.043,0.021l60.429,31.972l0.044,0.025
						l14.066,7.441l16.714-9.221L126.978,277.454z"/>
					<polygon style="fill:#D8D0BC;" points="153.929,255.997 178.522,244.352 142.73,264.253 176.676,247.264 153.483,261.087 
						171.782,251.796 159.166,259.696 159.156,259.7 126.978,277.454 126.968,277.458 116.734,282.05 128.162,275.753 
						116.047,281.364 132.865,272.117 113.507,280.459 129.186,272.479 115.071,278.203 135.851,267.246 113.992,276.856 
						130.337,267.109 130.302,267.039 149.597,256.85 149.644,256.824 178.083,242.885 					"/>
					<path style="fill:#E9E5D9;" d="M119.22,269.469c-0.012,0.008-0.028,0.015-0.041,0.02
						C119.189,269.485,119.202,269.48,119.22,269.469z"/>
					<path style="fill:#D8D0BC;" d="M106.441,279.551l0.023,0.01L106.441,279.551z"/>
					<path style="fill:#E9E5D9;" d="M120.102,243.495C96.5,233.282,61.116,200.839,36.4,197.495
						c1.988,0.243,17.29,1.747,33.599-7.359c0,0-5.097,4.646,16.264,20.648C107.626,226.781,143.773,253.742,120.102,243.495z"/>
					<path style="fill:#E9E5D9;" d="M130.302,267.039l-17.292,9.13l-22.28-11.762l-0.009-0.004L42.643,239.02l-0.003,0.001
						l-16.847-8.896l2.896-1.482c4.34,1.906,27.592,12.246,40.678,20.8c14.481,9.463,48.918,22.871,48.918,22.871l42.287-21.339
						l0.031,0.06l-10.962,5.788l-0.047,0.026L130.302,267.039z"/>
					<path style="fill:#D8D0BC;" d="M113.01,276.169c0,0-3.747,4.344-2.756,10.51l-14.066-7.441l-0.044-0.025l-12.188-7.238
						l21.248,10.271l-13.858-7.466l15.82,6.552l-10.966-5.624l10.242,3.843l0.023,0.01l-0.023-0.01l-18.211-9.154l18.97,7.919
						l-12.305-6.597l12.404,4.784l-15.946-9.253l16.99,7.745L90.73,264.407L113.01,276.169z"/>
					<path style="fill:#FFFFFF;" d="M157.554,237.602c-3.408,1.895-6.705,3.474-9.848,4.795l-0.003,0.001
						c-17.746,7.471-30.528,6.666-30.528,6.666l-65.979-42.033l-14.978-9.544c1.403,0.826,46.628,27.436,81.06,49.167
						C117.278,246.654,130.229,250.557,157.554,237.602z"/>
					<path style="fill:#D8D0BC;" d="M154.107,242.628c-9.491,6.236-34.449,11.602-34.449,11.602
						c-4.017-3.594-69.093-41.323-74.663-44.551c2.381-1.339,4.645-2.395,6.2-2.649l65.979,42.033c0,0,12.782,0.804,30.528-6.666
						l0.003-0.001c11.72-3.14,22.277-10.607,31.602-9.64c-2.615,0.131-5.858,0.862-9.878,2.521c-0.003,0.001-0.007,0.003-0.01,0.004
						C165.784,236.488,159.941,238.793,154.107,242.628z"/>
					<path style="fill:#F9F8F7;" d="M157.554,237.602c-27.325,12.956-40.276,9.053-40.276,9.053
						c-34.432-21.731-79.658-48.342-81.06-49.167l-0.035-0.021c0,0,0.074,0.013,0.217,0.029c24.716,3.344,60.1,35.788,83.702,46.001
						c23.672,10.246-12.476-16.715-33.839-32.712c-21.361-16.002-16.264-20.648-16.264-20.648c9.82-5.482,20.58-5.872,29.061-1.661
						c0.774,0.384,2.106,1.051,3.888,1.94c4.338,2.17,11.342,5.677,19.45,9.739c0.014,0.006,0.024,0.013,0.039,0.023
						c11.781,5.9,25.873,12.965,37.472,18.781c0.014,0.006,0.024,0.013,0.038,0.019c12.675,6.355,22.361,11.215,22.775,11.421
						l0.001,0.003l-0.009,0.015c-4.259-1.74-10.92-1.411-21.211,4.886c-1.33,0.813-2.644,1.581-3.943,2.297
						C157.561,237.599,157.559,237.604,157.554,237.602z"/>
					<path style="fill:#D8D0BC;" d="M122.045,262.495c0,0-29.288-7.974-44.364-18.998c-14.418-10.548-42.206-21.546-44.603-22.485
						c2.682-1.485,4.581-2.275,5.413-2.593c8.424,2.903,26.45,9.681,35.702,17.432c12.334,10.332,42.424,22.299,42.424,22.299
						s11.806,4.2,34.668-12.243c0,0,0.007-0.003,0.015-0.01c0.583-0.338,16.047-9.247,26.242-9.514
						c6.826-0.18,10.46,1.445,10.46,1.445l-0.004,0.009c-1.674-0.703-3.836-0.709-6.29-0.219l-0.005-0.032
						c-0.71,0.105-16.756,2.57-29.898,10.984C138.362,257.177,122.045,262.495,122.045,262.495z"/>
					<path style="fill:#E9E5D9;" d="M162.88,246.316c-9.914,6.209-41.151,21.896-43.577,23.112c-0.035,0.018-0.06,0.031-0.083,0.041
						c-0.018,0.011-0.032,0.016-0.041,0.02c-0.009,0.007-0.015,0.01-0.025,0.014c-9.032-1.605-45.256-22.398-58.903-30.711
						c-8.999-5.483-20.158-10.111-26.713-12.629l-0.003,0.001c-3.384-1.301-5.541-2.037-5.541-2.037
						c1.899-1.274,3.611-2.299,5.084-3.115c2.397,0.939,30.185,11.937,44.603,22.485c15.076,11.024,44.364,18.998,44.364,18.998
						s16.317-5.318,29.761-13.924c13.142-8.414,29.189-10.878,29.898-10.984l0.005,0.032
						C176.183,238.731,169.172,242.376,162.88,246.316z"/>
					<polygon style="fill:#F9F8F7;" points="25.316,231.821 49.678,244.514 26.333,231.285 42.638,239.026 42.64,239.022 
						42.643,239.02 90.721,264.403 90.73,264.407 108.342,274.995 91.352,267.251 107.298,276.503 94.895,271.719 107.2,278.316 
						88.23,270.398 106.441,279.551 96.199,275.708 107.165,281.332 91.345,274.78 105.203,282.246 83.956,271.975 96.144,279.213 
						35.715,247.241 56.998,257.368 24.416,239.551 48.326,251.073 24.162,237.878 40.82,245.865 24.235,236.251 51.837,250.538 
						24.505,234.599 46.252,246.16 24.678,233.214 42.222,242.853 					"/>
					<path style="fill:#D8D0BC;" d="M23.445,240.046c-0.639-1.914-1.611-6.527,2.348-9.921l16.847,8.896l-0.002,0.005l-16.306-7.741
						l23.346,13.229l-24.362-12.693l16.906,11.032l-17.545-9.639l21.574,12.946l-21.747-11.561l27.333,15.939l-27.602-14.287
						l16.585,9.614l-16.658-7.987l24.164,13.195l-23.91-11.522l32.581,17.817l-21.282-10.128l-0.043-0.021l-11.881-6.288
						c0,0-0.048-0.103-0.127-0.293C23.605,240.49,23.526,240.289,23.445,240.046z"/>
					<path style="fill:#727BCE;" d="M18.83,243.239c-0.356-0.187-0.761-0.206-1.117-0.084l5.732-3.108
						c0.081,0.243,0.16,0.444,0.219,0.592L18.83,243.239z"/>
				</g>
			</g>
		</g>
		<g id="XMLID_172_">
			<g>
				<polygon style="fill:#FF006C;" points="29.837,35.291 116.201,60.637 136.06,47.032 				"/>
				<polygon style="fill:#FF006C;" points="95.998,78.981 102.063,72.348 29.837,35.291 80.709,95.699 				"/>
				<polygon style="fill:#7F0049;" points="108.012,86.859 102.063,72.348 95.998,78.981 				"/>
				<polygon style="fill:#AA0059;" points="108.012,86.859 116.201,60.637 29.837,35.291 102.063,72.348 				"/>
			</g>
		</g>
		<g id="XMLID_173_">
			<g>
				<polygon style="fill:#B1B2F3;" points="516.309,137.401 477.68,198.575 458.471,200.92 				"/>
				<polygon style="fill:#B1B2F3;" points="499.612,198.908 492.43,198.128 516.309,137.401 517.717,200.869 				"/>
				<polygon style="fill:#6F78CE;" points="496.551,210.042 492.43,198.128 499.612,198.908 				"/>
				<polygon style="fill:#878CF0;" points="496.551,210.042 477.68,198.575 516.309,137.401 492.43,198.128 				"/>
			</g>
		</g>
		<g id="XMLID_174_">
			<g>
				<polygon style="fill:#FE9C0A;" points="40.986,335.339 110.497,392.517 134.101,387.788 				"/>
				<polygon style="fill:#FE9C0A;" points="84.719,401.472 92.899,397.748 40.986,335.339 64.099,410.856 				"/>
				<polygon style="fill:#C65A0A;" points="92.682,413.429 92.899,397.748 84.719,401.472 				"/>
				<polygon style="fill:#FC7808;" points="92.682,413.429 110.497,392.517 40.986,335.339 92.899,397.748 				"/>
			</g>
		</g>
		<g>
			<path style="fill:#DCE8EF;" d="M383.563,271.445c3.081-2.152,6.475-3.938,10.191-4.97c1.852-0.529,3.797-0.804,5.766-0.807
				c1.969,0.013,3.959,0.389,5.819,1.112c1.85,0.749,3.545,1.848,4.998,3.168c1.438,1.338,2.685,2.842,3.716,4.461
				c2.091,3.226,3.523,6.74,4.694,10.31c-1.928-3.23-3.742-6.507-5.968-9.409c-2.217-2.882-4.9-5.404-8.178-6.672
				c-3.248-1.339-6.934-1.333-10.492-0.648C390.53,268.683,387.039,270.017,383.563,271.445z"/>
			<path style="fill:#DCE8EF;" d="M382.879,262.009c3.097-2.373,6.624-4.246,10.424-5.417c3.789-1.184,7.902-1.589,11.905-0.907
				c4.02,0.723,7.785,2.664,10.646,5.526c2.862,2.817,4.807,6.724,4.738,10.668c-0.781-3.841-2.976-7.105-5.799-9.524
				c-2.837-2.408-6.299-4.08-9.927-4.701c-3.661-0.661-7.466-0.387-11.16,0.44C390.001,258.935,386.404,260.344,382.879,262.009z"/>
			<path style="fill:#DCE8EF;" d="M149.585,304.415c-3.595,0.799-6.999,2.071-10.116,3.822c-3.105,1.761-5.941,3.967-8.296,6.607
				c-2.382,2.615-4.285,5.662-5.718,8.931c-1.421,3.28-2.338,6.795-2.767,10.454c-0.408-3.669,0.094-7.464,1.311-11.016
				c1.205-3.563,3.164-6.883,5.69-9.708c2.552-2.801,5.654-5.09,9.074-6.653C142.171,305.277,145.894,304.388,149.585,304.415z"/>
			<path style="fill:#DCE8EF;" d="M118.036,310.727c-2.537,2.635-4.79,5.448-6.661,8.485c-0.916,1.529-1.784,3.081-2.506,4.702
				c-0.743,1.611-1.395,3.259-1.878,4.953c-0.521,1.684-0.897,3.412-1.142,5.156c-0.272,1.743-0.354,3.509-0.313,5.273
				c0.113,3.528,0.881,7.051,2.459,10.358c-2.297-2.868-3.608-6.533-4.016-10.247c-0.437-3.733,0.049-7.528,1.097-11.117
				c1.095-3.591,2.814-6.949,5.008-9.948C112.278,315.35,114.967,312.725,118.036,310.727z"/>
			<path style="fill:#DCE8EF;" d="M504.147,458.667c3.507-0.767,6.929-1.703,10.147-3.066c3.204-1.371,6.216-3.147,8.707-5.496
				c2.493-2.303,4.418-5.239,5.601-8.454c1.166-3.221,1.541-6.78,0.719-10.288c1.628,3.237,1.758,7.194,0.769,10.756
				c-0.97,3.594-3.001,6.882-5.729,9.449c-2.741,2.528-6.05,4.358-9.522,5.488C511.368,458.201,507.739,458.723,504.147,458.667z"/>
			<path style="fill:#DCE8EF;" d="M520.274,464.123c2.438-1.108,4.674-2.44,6.698-4.026c2.012-1.595,3.833-3.406,5.376-5.436
				c1.57-2.008,2.861-4.228,3.894-6.578c1.021-2.36,1.744-4.86,2.201-7.499c0.379,2.659,0.069,5.429-0.736,8.037
				c-0.793,2.621-2.113,5.078-3.777,7.262c-1.693,2.161-3.735,4.06-6.07,5.49C525.542,462.812,522.941,463.814,520.274,464.123z"/>
			<path style="fill:#DCE8EF;" d="M209.542,464.231c2.66,2.985,5.576,5.647,8.753,7.93c3.182,2.27,6.595,4.194,10.196,5.672
				c3.587,1.512,7.356,2.578,11.209,3.237c3.859,0.646,7.801,0.841,11.794,0.628c-3.868,1.038-7.963,1.295-11.994,0.919
				c-4.04-0.362-8.018-1.393-11.777-2.939c-3.745-1.58-7.279-3.678-10.381-6.29C214.235,470.793,211.533,467.706,209.542,464.231z"
				/>
			<path style="fill:#DCE8EF;" d="M212.964,481.302c2.33,1.078,4.612,2.125,6.933,3.059c2.324,0.921,4.663,1.769,7.05,2.462
				c2.377,0.728,4.798,1.302,7.245,1.806c2.452,0.492,4.935,0.87,7.474,1.249c-2.53,0.454-5.123,0.51-7.691,0.296
				c-2.573-0.201-5.119-0.713-7.601-1.437c-2.471-0.759-4.881-1.727-7.142-2.971C216.969,484.536,214.832,483.068,212.964,481.302z"
				/>
			<path style="fill:#DCE8EF;" d="M267.211,195.669c2.085,2.446,3.632,5.37,4.658,8.46c1.043,3.093,1.531,6.37,1.549,9.642
				c-0.019,3.272-0.512,6.548-1.558,9.64c-1.029,3.09-2.581,6.011-4.671,8.454c1.386-2.893,2.458-5.849,3.17-8.881
				c0.697-3.031,1.075-6.121,1.06-9.214c0.021-3.093-0.353-6.184-1.046-9.216C269.665,201.52,268.596,198.563,267.211,195.669z"/>
			<path style="fill:#DCE8EF;" d="M280.46,202.232c0.829,1.617,1.358,3.358,1.697,5.133c0.339,1.776,0.492,3.592,0.443,5.403
				c-0.041,1.811-0.289,3.617-0.718,5.373c-0.43,1.755-1.05,3.467-1.963,5.038c0.116-1.811,0.291-3.551,0.422-5.286
				c0.132-1.734,0.211-3.455,0.26-5.177c0.043-1.722,0.051-3.446,0.01-5.184C280.571,205.792,280.484,204.046,280.46,202.232z"/>
			<path style="fill:#DCE8EF;" d="M143.297,146.053c0.657-2.147,2.003-4.096,3.695-5.648c1.688-1.572,3.743-2.735,5.926-3.495
				c2.195-0.724,4.535-1.047,6.831-0.823c2.287,0.206,4.54,0.94,6.364,2.249c-2.169-0.546-4.301-0.775-6.409-0.689
				c-2.102,0.1-4.176,0.473-6.146,1.156c-1.982,0.651-3.856,1.613-5.588,2.809C146.243,142.824,144.688,144.302,143.297,146.053z"/>
			<path style="fill:#DCE8EF;" d="M142.367,135.465c0.401-1.194,1.112-2.238,1.95-3.16c0.848-0.914,1.848-1.691,2.94-2.3
				c1.092-0.61,2.279-1.051,3.503-1.291c1.225-0.229,2.488-0.282,3.714,0.009l-3.232,1.488c-1.034,0.487-2.031,0.997-3.012,1.541
				c-0.98,0.544-1.939,1.124-2.897,1.747L142.367,135.465z"/>
			<path style="fill:#DCE8EF;" d="M43.09,187.249c-2.511,1.145-4.866,2.447-7.054,3.973c-2.177,1.536-4.207,3.255-6.012,5.19
				c-1.831,1.911-3.436,4.032-4.848,6.291c-1.402,2.269-2.573,4.692-3.58,7.261c0.194-2.759,0.999-5.484,2.21-8.008
				c1.201-2.537,2.845-4.862,4.767-6.917c1.948-2.031,4.179-3.8,6.645-5.139C37.671,188.551,40.346,187.597,43.09,187.249z"/>
			<path style="fill:#DCE8EF;" d="M32.4,184.656c-1.997,1.035-3.867,2.142-5.613,3.405c-1.734,1.272-3.364,2.662-4.824,4.216
				c-1.486,1.529-2.801,3.219-3.994,5.009c-1.183,1.8-2.206,3.717-3.154,5.758c0.14-2.251,0.801-4.471,1.794-6.525
				c0.983-2.066,2.335-3.953,3.909-5.623c1.6-1.645,3.424-3.079,5.444-4.153C27.97,185.659,30.157,184.899,32.4,184.656z"/>
			<path style="fill:#DCE8EF;" d="M254.863,122.693c-1.373,1.031-2.542,2.136-3.541,3.364c-0.995,1.228-1.803,2.572-2.448,3.987
				c-0.636,1.419-1.116,2.911-1.383,4.469c-0.266,1.56-0.327,3.167-0.2,4.88c-0.925-1.458-1.35-3.235-1.356-5
				c-0.009-1.771,0.377-3.554,1.118-5.174c0.734-1.623,1.819-3.089,3.157-4.249C251.542,123.812,253.158,122.96,254.863,122.693z"/>
			<path style="fill:#DCE8EF;" d="M251.736,113.215c-1.419,1.358-2.755,2.69-3.987,4.1c-1.231,1.409-2.347,2.891-3.367,4.435
				c-1.014,1.548-1.937,3.157-2.745,4.844c-0.81,1.689-1.508,3.441-2.199,5.28c-0.134-1.964,0.166-3.948,0.743-5.843
				c0.578-1.897,1.431-3.721,2.532-5.381c1.095-1.664,2.433-3.168,3.949-4.446C248.176,114.926,249.88,113.868,251.736,113.215z"/>
			<path style="fill:#DCE8EF;" d="M383.991,121.917c2.624-0.769,5.483-0.797,8.216-0.253c2.746,0.53,5.37,1.658,7.719,3.187
				c2.329,1.56,4.396,3.531,5.961,5.85c1.573,2.301,2.668,4.943,2.987,7.659c-1.123-2.484-2.534-4.728-4.229-6.714
				c-1.703-1.973-3.653-3.714-5.821-5.127c-2.149-1.442-4.515-2.554-6.998-3.347C389.334,122.391,386.717,121.974,383.991,121.917z"
				/>
			<path style="fill:#DCE8EF;" d="M398.273,117.968c-0.002-0.186,0.108-0.397,0.295-0.524c0.187-0.124,0.406-0.174,0.616-0.196
				c0.417-0.044,0.853,0.056,1.228,0.196c0.695,0.26,1.387,0.546,2.041,0.9c1.319,0.692,2.558,1.542,3.675,2.532
				c1.121,0.986,2.109,2.119,2.954,3.344c0.843,1.225,1.541,2.556,1.951,4.003c-1.117-1.005-2.124-2.015-3.144-2.996
				c-1.019-0.981-2.047-1.926-3.089-2.856c-1.047-0.924-2.107-1.833-3.201-2.728l-1.662-1.346c-0.244-0.229-0.502-0.385-0.805-0.501
				C398.848,117.697,398.497,117.634,398.273,117.968z"/>
			<path style="fill:#DCE8EF;" d="M451.481,213.804c0.391,1.506,0.423,3.081,0.232,4.622c-0.192,1.544-0.608,3.067-1.236,4.497
				c-0.622,1.433-1.46,2.771-2.463,3.96c-1.002,1.187-2.182,2.231-3.556,2.964c0.795-1.334,1.567-2.582,2.274-3.854
				c0.706-1.271,1.334-2.561,1.913-3.872c0.573-1.314,1.094-2.651,1.55-4.031C450.651,216.707,451.043,215.293,451.481,213.804z"/>
			<path style="fill:#DCE8EF;" d="M456.817,226.132c-0.098,1.015-0.472,1.937-0.954,2.791c-0.492,0.848-1.119,1.615-1.843,2.276
				c-0.723,0.661-1.545,1.214-2.435,1.626c-0.894,0.402-1.848,0.688-2.868,0.689c0.671-0.764,1.347-1.38,2.001-2.002l1.955-1.792
				l1.967-1.779C455.322,227.348,455.996,226.731,456.817,226.132z"/>
			<path style="fill:#DCE8EF;" d="M327.257,288.879c-0.156,0.353-0.518,0.643-0.932,0.725c-0.412,0.093-0.832,0.054-1.231-0.017
				c-0.809-0.147-1.541-0.509-2.232-0.743c-1.408-0.516-2.87-0.836-4.333-1.04c-2.933-0.374-5.921-0.233-8.793,0.439
				c-2.878,0.634-5.654,1.775-8.297,3.196c-2.643,1.437-5.146,3.173-7.632,5.024c1.904-2.447,4.212-4.599,6.822-6.358
				c2.605-1.769,5.549-3.088,8.669-3.812c3.118-0.688,6.399-0.751,9.513-0.017c1.555,0.357,3.063,0.919,4.451,1.679
				c0.705,0.402,1.31,0.826,1.984,1.104C325.891,289.326,326.725,289.516,327.257,288.879z"/>
		</g>
		<g>
			<g>
				<path style="fill:#F0F5F7;" d="M123.647,77.445c-0.51,0-0.946-0.389-0.995-0.907c-0.052-0.55,0.353-1.037,0.902-1.089
					c0.865-0.081,1.712-0.141,2.541-0.179c0.546-0.022,1.019,0.401,1.045,0.953c0.025,0.551-0.401,1.02-0.953,1.045
					c-0.798,0.037-1.614,0.094-2.447,0.172C123.709,77.444,123.678,77.445,123.647,77.445z"/>
			</g>
			<g>
				<path style="fill:#F0F5F7;" d="M198.535,107.415c-0.014,0-0.027,0-0.041-0.001c-1.685-0.068-3.401-0.251-5.1-0.544
					c-0.544-0.093-0.91-0.61-0.816-1.155c0.093-0.544,0.61-0.916,1.155-0.816c1.615,0.277,3.244,0.451,4.842,0.517
					c0.552,0.023,0.981,0.488,0.958,1.04C199.512,106.994,199.069,107.415,198.535,107.415z M203.531,107.279
					c-0.509,0-0.944-0.386-0.994-0.903c-0.054-0.55,0.349-1.039,0.898-1.092c1.622-0.158,3.231-0.434,4.781-0.819
					c0.534-0.136,1.079,0.192,1.211,0.729c0.133,0.536-0.193,1.078-0.729,1.211c-1.645,0.409-3.35,0.702-5.07,0.869
					C203.596,107.278,203.563,107.279,203.531,107.279z M327.415,106.009c-1.116,0-2.272-0.044-3.438-0.132
					c-0.551-0.042-0.963-0.522-0.922-1.072c0.041-0.55,0.501-0.973,1.072-0.922c1.675,0.126,3.298,0.159,4.885,0.095
					c0.564-0.005,1.018,0.407,1.04,0.959c0.022,0.552-0.407,1.018-0.959,1.039C328.536,105.997,327.977,106.009,327.415,106.009z
					 M188.692,105.756c-0.09,0-0.181-0.012-0.271-0.038c-1.626-0.457-3.25-0.985-4.828-1.568c-0.518-0.192-0.782-0.767-0.591-1.285
					c0.192-0.519,0.766-0.782,1.285-0.591c1.527,0.565,3.101,1.076,4.675,1.52c0.531,0.149,0.841,0.702,0.691,1.233
					C189.53,105.468,189.129,105.756,188.692,105.756z M334.022,105.441c-0.475,0-0.897-0.339-0.983-0.823
					c-0.098-0.544,0.264-1.063,0.808-1.161c1.611-0.29,3.187-0.7,4.682-1.221c0.523-0.183,1.092,0.094,1.273,0.615
					c0.182,0.522-0.094,1.092-0.615,1.273c-1.594,0.555-3.272,0.993-4.986,1.301C334.141,105.436,334.081,105.441,334.022,105.441z
					 M319.091,105.26c-0.056,0-0.113-0.004-0.17-0.014c-1.606-0.275-3.278-0.632-4.969-1.059c-0.536-0.136-0.86-0.679-0.725-1.215
					c0.136-0.536,0.681-0.86,1.215-0.724c1.641,0.415,3.261,0.76,4.816,1.026c0.544,0.094,0.91,0.61,0.817,1.155
					C319.992,104.916,319.569,105.26,319.091,105.26z M213.2,104.859c-0.39,0-0.76-0.229-0.921-0.611
					c-0.215-0.509,0.023-1.095,0.531-1.311c1.498-0.634,2.937-1.389,4.275-2.243c0.465-0.297,1.084-0.16,1.381,0.305
					c0.297,0.465,0.161,1.084-0.305,1.381c-1.433,0.915-2.971,1.722-4.572,2.399C213.462,104.833,213.329,104.859,213.2,104.859z
					 M309.39,102.832c-0.101,0-0.204-0.016-0.306-0.048c-1.546-0.497-3.151-1.062-4.771-1.678c-0.516-0.197-0.775-0.774-0.579-1.291
					c0.196-0.517,0.775-0.774,1.29-0.579c1.587,0.604,3.158,1.157,4.67,1.643c0.526,0.169,0.815,0.732,0.646,1.258
					C310.206,102.562,309.813,102.832,309.39,102.832z M179.326,102.291c-0.141,0-0.284-0.03-0.42-0.093
					c-1.495-0.692-3.016-1.467-4.519-2.302c-0.482-0.268-0.657-0.877-0.388-1.36c0.268-0.482,0.877-0.657,1.36-0.388
					c1.46,0.811,2.937,1.563,4.388,2.236c0.501,0.232,0.719,0.826,0.487,1.328C180.065,102.076,179.704,102.291,179.326,102.291z
					 M343.421,102.145c-0.353,0-0.694-0.187-0.876-0.517c-0.267-0.483-0.091-1.092,0.393-1.358c1.395-0.77,2.747-1.67,4.019-2.679
					c0.431-0.343,1.061-0.271,1.405,0.163c0.343,0.433,0.271,1.062-0.163,1.405c-1.359,1.077-2.804,2.04-4.295,2.862
					C343.75,102.105,343.584,102.145,343.421,102.145z M221.579,99.486c-0.268,0-0.536-0.107-0.733-0.32
					c-0.376-0.405-0.352-1.038,0.053-1.413c1.186-1.101,2.26-2.307,3.192-3.587c0.325-0.445,0.951-0.544,1.397-0.219
					c0.446,0.326,0.544,0.951,0.219,1.397c-1.008,1.382-2.168,2.686-3.448,3.874C222.066,99.397,221.822,99.486,221.579,99.486z
					 M300.031,99.286c-0.132,0-0.267-0.027-0.396-0.083c-1.5-0.648-3.044-1.349-4.59-2.084c-0.499-0.237-0.711-0.834-0.474-1.332
					c0.238-0.499,0.837-0.712,1.333-0.474c1.525,0.725,3.047,1.417,4.525,2.055c0.507,0.219,0.741,0.808,0.521,1.314
					C300.786,99.06,300.417,99.286,300.031,99.286z M170.581,97.456c-0.184,0-0.371-0.051-0.538-0.157
					c-1.325-0.847-2.694-1.768-4.185-2.815c-0.452-0.317-0.561-0.941-0.244-1.393c0.318-0.452,0.941-0.561,1.393-0.244
					c1.468,1.031,2.813,1.936,4.113,2.767c0.465,0.297,0.602,0.916,0.304,1.381C171.234,97.293,170.911,97.456,170.581,97.456z
					 M351.241,95.978c-0.244,0-0.488-0.088-0.681-0.268c-0.404-0.377-0.427-1.009-0.051-1.414c1.069-1.149,2.102-2.42,3.07-3.778
					c0.32-0.45,0.944-0.556,1.395-0.234c0.45,0.321,0.554,0.945,0.234,1.395c-1.018,1.428-2.106,2.767-3.234,3.979
					C351.776,95.871,351.509,95.978,351.241,95.978z M290.987,94.997c-0.153,0-0.309-0.035-0.456-0.11
					c-1.506-0.772-2.989-1.559-4.446-2.354c-0.485-0.264-0.664-0.872-0.399-1.356c0.264-0.485,0.872-0.665,1.357-0.399
					c1.442,0.786,2.911,1.565,4.402,2.33c0.491,0.252,0.685,0.854,0.433,1.346C291.701,94.799,291.35,94.997,290.987,94.997z
					 M206.6,93.394c-0.008,0-0.015,0-0.023,0c-1.746-0.039-3.475-0.226-5.141-0.555c-0.542-0.107-0.894-0.633-0.787-1.175
					c0.107-0.542,0.63-0.897,1.175-0.787c1.552,0.307,3.165,0.481,4.796,0.517c0.552,0.013,0.99,0.47,0.978,1.022
					C207.587,92.96,207.141,93.394,206.6,93.394z M211.583,93.123c-0.497,0-0.927-0.37-0.991-0.875
					c-0.069-0.548,0.319-1.048,0.867-1.117c1.543-0.194,3.115-0.488,4.803-0.898c0.534-0.133,1.077,0.199,1.208,0.736
					c0.13,0.537-0.199,1.077-0.736,1.207c-1.762,0.428-3.406,0.735-5.025,0.939C211.667,93.121,211.625,93.123,211.583,93.123z
					 M162.376,91.738c-0.206,0-0.413-0.063-0.591-0.194l-1.275-0.939c-0.922-0.68-1.837-1.355-2.752-2.02
					c-0.446-0.325-0.545-0.95-0.22-1.397c0.326-0.446,0.95-0.546,1.397-0.22c0.917,0.667,1.836,1.345,2.762,2.027l1.272,0.938
					c0.445,0.327,0.541,0.953,0.213,1.398C162.987,91.597,162.684,91.738,162.376,91.738z M196.835,91.455
					c-0.121,0-0.244-0.022-0.364-0.069c-0.567-0.222-1.136-0.463-1.705-0.727c-1.066-0.493-2.051-1.117-2.927-1.853
					c-0.423-0.355-0.477-0.986-0.122-1.409c0.355-0.423,0.986-0.477,1.409-0.122c0.74,0.623,1.575,1.15,2.479,1.569
					c0.532,0.246,1.063,0.472,1.593,0.679c0.515,0.201,0.769,0.781,0.568,1.295C197.613,91.213,197.235,91.455,196.835,91.455z
					 M227.422,91.448c-0.139,0-0.28-0.029-0.415-0.09c-0.502-0.229-0.724-0.823-0.494-1.325c0.663-1.45,1.18-2.976,1.536-4.535
					c0.123-0.538,0.663-0.875,1.197-0.753c0.407,0.093,0.698,0.421,0.764,0.808c0.082-0.072,0.178-0.132,0.285-0.175l1.275-0.516
					c1.123-0.455,2.248-0.91,3.373-1.357c0.516-0.205,1.095,0.047,1.298,0.56c0.204,0.513-0.047,1.095-0.56,1.298
					c-1.121,0.445-2.241,0.899-3.361,1.352l-1.277,0.517c-0.478,0.19-1.014-0.008-1.253-0.449c-0.37,1.399-0.86,2.769-1.459,4.08
					C228.164,91.231,227.801,91.448,227.422,91.448z M221.306,90.822c-0.421,0-0.813-0.268-0.95-0.689
					c-0.172-0.525,0.114-1.089,0.639-1.261c1.424-0.466,2.95-1.011,4.666-1.664c0.514-0.195,1.094,0.062,1.291,0.579
					c0.196,0.517-0.063,1.094-0.579,1.291c-1.746,0.664-3.301,1.219-4.755,1.695C221.514,90.806,221.409,90.822,221.306,90.822z
					 M282.193,90.215c-0.168,0-0.338-0.042-0.495-0.131c-1.486-0.848-2.935-1.692-4.341-2.521c-0.476-0.28-0.634-0.894-0.353-1.369
					c0.281-0.477,0.895-0.634,1.369-0.354c1.398,0.824,2.839,1.664,4.316,2.507c0.479,0.274,0.646,0.885,0.373,1.364
					C282.878,90.034,282.54,90.215,282.193,90.215z M154.258,85.895c-0.192,0-0.387-0.055-0.558-0.171
					c-1.487-1.003-2.852-1.863-4.173-2.63c-0.478-0.277-0.64-0.89-0.362-1.367c0.278-0.477,0.889-0.64,1.367-0.362
					c1.36,0.79,2.762,1.674,4.286,2.702c0.458,0.309,0.579,0.93,0.27,1.388C154.895,85.741,154.579,85.895,154.258,85.895z
					 M273.564,85.139c-0.175,0-0.353-0.046-0.514-0.143l-1.011-0.608c-1.078-0.649-2.181-1.23-3.278-1.729
					c-0.503-0.229-0.725-0.821-0.497-1.324c0.228-0.503,0.82-0.728,1.324-0.498c1.168,0.53,2.339,1.147,3.483,1.836l1.01,0.608
					c0.474,0.285,0.626,0.899,0.342,1.372C274.235,84.966,273.904,85.139,273.564,85.139z M189.423,85.13
					c-0.366,0-0.719-0.201-0.895-0.551c-0.768-1.527-1.292-3.232-1.557-5.069c-0.079-0.547,0.3-1.054,0.847-1.133
					c0.546-0.073,1.054,0.3,1.133,0.847c0.234,1.623,0.693,3.123,1.365,4.457c0.248,0.493,0.049,1.094-0.444,1.343
					C189.727,85.096,189.574,85.13,189.423,85.13z M239.992,83.65c-0.409,0-0.793-0.253-0.94-0.661
					c-0.188-0.519,0.081-1.093,0.601-1.28c1.732-0.626,3.305-1.146,4.807-1.589c0.529-0.156,1.085,0.146,1.242,0.676
					c0.157,0.53-0.146,1.086-0.676,1.242c-1.463,0.432-2.998,0.94-4.693,1.552C240.219,83.63,240.104,83.65,239.992,83.65z
					 M229.65,81.769c-0.01,0-0.02,0-0.029,0c-0.552-0.016-0.987-0.476-0.971-1.028c0.007-0.246,0.011-0.494,0.011-0.742
					c0-1.333-0.105-2.701-0.312-4.065c-0.083-0.546,0.293-1.056,0.839-1.139c0.539-0.085,1.056,0.293,1.139,0.839
					c0.222,1.463,0.334,2.932,0.334,4.365c0,0.268-0.004,0.534-0.012,0.8C230.634,81.34,230.189,81.769,229.65,81.769z
					 M264.47,81.068c-0.084,0-0.17-0.011-0.255-0.034c-1.543-0.407-3.143-0.683-4.754-0.82c-0.55-0.047-0.958-0.532-0.911-1.082
					c0.047-0.55,0.514-0.957,1.082-0.911c1.725,0.148,3.439,0.444,5.093,0.88c0.534,0.141,0.853,0.688,0.712,1.222
					C265.318,80.771,264.913,81.068,264.47,81.068z M145.598,80.924c-0.139,0-0.281-0.029-0.416-0.091
					c-1.527-0.698-3.013-1.276-4.544-1.766c-0.526-0.168-0.816-0.731-0.648-1.257c0.169-0.526,0.73-0.815,1.257-0.648
					c1.585,0.507,3.189,1.13,4.767,1.853c0.502,0.229,0.723,0.823,0.493,1.325C146.339,80.707,145.977,80.924,145.598,80.924z
					 M249.596,80.868c-0.468,0-0.885-0.329-0.98-0.805c-0.107-0.542,0.245-1.068,0.786-1.176c1.744-0.346,3.452-0.58,5.076-0.694
					c0.56-0.033,1.029,0.376,1.068,0.927c0.039,0.551-0.376,1.029-0.927,1.068c-1.542,0.109-3.165,0.332-4.827,0.661
					C249.726,80.862,249.661,80.868,249.596,80.868z M136.102,77.898c-0.06,0-0.121-0.005-0.183-0.017
					c-1.565-0.289-3.191-0.486-4.835-0.586c-0.551-0.033-0.971-0.507-0.938-1.059c0.034-0.552,0.523-0.967,1.059-0.938
					c1.724,0.104,3.432,0.312,5.077,0.615c0.543,0.1,0.902,0.622,0.802,1.165C136.996,77.561,136.576,77.898,136.102,77.898z
					 M187.906,75.376c-0.038,0-0.077-0.002-0.115-0.006c-0.548-0.063-0.942-0.559-0.88-1.107c0.199-1.736,0.604-3.448,1.203-5.088
					c0.189-0.519,0.765-0.786,1.282-0.596c0.519,0.189,0.786,0.764,0.596,1.282c-0.545,1.492-0.913,3.049-1.094,4.629
					C188.84,75,188.407,75.376,187.906,75.376z M228.156,71.93c-0.408,0-0.791-0.252-0.939-0.657
					c-0.538-1.473-1.274-2.884-2.188-4.194c-0.316-0.453-0.205-1.076,0.249-1.392c0.455-0.315,1.077-0.204,1.392,0.249
					c1.012,1.452,1.829,3.017,2.426,4.651c0.189,0.519-0.078,1.093-0.596,1.283C228.386,71.91,228.27,71.93,228.156,71.93z
					 M191.341,66.085c-0.198,0-0.397-0.059-0.572-0.18c-0.453-0.316-0.563-0.94-0.247-1.393c1.032-1.477,2.231-2.733,3.563-3.734
					l0.71,0.718l0.539,0.846c-1.21,0.909-2.261,2.012-3.171,3.315C191.967,65.936,191.656,66.085,191.341,66.085z M222.518,63.791
					c-0.234,0-0.47-0.082-0.66-0.249c-1.185-1.041-2.502-1.956-3.915-2.72c-0.486-0.263-0.667-0.87-0.404-1.355
					c0.264-0.485,0.87-0.665,1.355-0.404c1.545,0.835,2.987,1.837,4.284,2.978c0.415,0.364,0.456,0.996,0.091,1.411
					C223.072,63.676,222.796,63.791,222.518,63.791z M199.111,59.99c-0.386,0-0.753-0.225-0.917-0.601
					c-0.221-0.506,0.01-1.096,0.517-1.316c1.6-0.698,3.282-1.207,5.001-1.514c0.551-0.098,1.064,0.265,1.16,0.809
					c0.097,0.544-0.265,1.063-0.809,1.16c-1.565,0.279-3.096,0.743-4.552,1.378C199.38,59.962,199.244,59.99,199.111,59.99z
					 M213.794,59.065c-0.09,0-0.182-0.013-0.273-0.039c-1.54-0.436-3.123-0.701-4.705-0.786c-0.552-0.03-0.975-0.501-0.945-1.052
					s0.518-0.972,1.052-0.945c1.729,0.093,3.459,0.382,5.142,0.859c0.532,0.15,0.84,0.703,0.689,1.234
					C214.631,58.777,214.23,59.065,213.794,59.065z"/>
			</g>
			<g>
				<path style="fill:#F0F5F7;" d="M357.152,87.709c-0.164,0-0.331-0.04-0.484-0.126c-0.483-0.268-0.657-0.877-0.389-1.36
					c0.389-0.7,0.77-1.424,1.141-2.173c0.246-0.494,0.846-0.696,1.34-0.452c0.495,0.246,0.697,0.846,0.452,1.34
					c-0.386,0.777-0.78,1.528-1.184,2.255C357.844,87.523,357.503,87.709,357.152,87.709z"/>
			</g>
		</g>
		<g>
			<g>
				<path style="fill:#FFFFFF;" d="M485.099,217.325c-0.059,0-0.118-0.005-0.178-0.016c-0.544-0.098-0.905-0.618-0.807-1.162
					c0.142-0.787,0.268-1.594,0.377-2.423c0.072-0.548,0.586-0.933,1.122-0.861c0.548,0.072,0.933,0.574,0.861,1.122
					c-0.113,0.862-0.244,1.7-0.391,2.517C485.995,216.986,485.574,217.325,485.099,217.325z"/>
			</g>
			<g>
				<path style="fill:#FFFFFF;" d="M465.722,318.107c-0.538,0-1.016-0.425-1.034-0.965c-0.019-0.549,0.373-1.01,0.923-1.032
					c0.014-0.001,0.098-0.003,0.112-0.003c1.5-0.041,3.027-0.281,4.509-0.712c0.529-0.156,1.085,0.15,1.239,0.681
					c0.154,0.53-0.15,1.085-0.681,1.239c-1.646,0.479-3.342,0.745-5.04,0.792C465.74,318.107,465.731,318.107,465.722,318.107z
					 M460.736,317.839c-0.046,0-0.092-0.003-0.139-0.01c-1.712-0.238-3.384-0.627-4.972-1.157c-0.524-0.175-0.807-0.741-0.632-1.265
					c0.175-0.524,0.739-0.807,1.265-0.632c1.471,0.49,3.024,0.852,4.614,1.073c0.547,0.076,0.929,0.581,0.853,1.128
					C461.655,317.477,461.227,317.839,460.736,317.839z M475.029,315.411c-0.344,0-0.679-0.178-0.865-0.497
					c-0.278-0.477-0.116-1.089,0.361-1.367c1.338-0.779,2.602-1.726,3.756-2.813c0.403-0.378,1.035-0.359,1.413,0.043
					c0.379,0.402,0.359,1.035-0.042,1.414c-1.265,1.19-2.651,2.228-4.12,3.084C475.373,315.367,475.2,315.411,475.029,315.411z
					 M451.446,314.717c-0.168,0-0.338-0.042-0.495-0.132c-1.482-0.846-2.885-1.846-4.169-2.973
					c-0.415-0.364-0.457-0.996-0.093-1.411c0.365-0.415,0.998-0.455,1.411-0.093c1.185,1.039,2.477,1.96,3.842,2.74
					c0.48,0.273,0.647,0.885,0.373,1.364C452.131,314.536,451.793,314.717,451.446,314.717z M482.158,308.718
					c-0.194,0-0.39-0.056-0.562-0.174c-0.457-0.311-0.574-0.933-0.264-1.389c0.887-1.303,1.631-2.699,2.213-4.152
					c0.205-0.513,0.786-0.763,1.3-0.557c0.513,0.206,0.762,0.788,0.557,1.301c-0.635,1.586-1.448,3.111-2.416,4.533
					C482.792,308.565,482.478,308.718,482.158,308.718z M444.081,308.266c-0.3,0-0.597-0.135-0.794-0.392
					c-1.025-1.337-1.939-2.793-2.715-4.327c-0.25-0.492-0.052-1.094,0.44-1.344c0.494-0.249,1.095-0.052,1.344,0.441
					c0.721,1.424,1.568,2.773,2.518,4.013c0.336,0.438,0.253,1.066-0.184,1.401C444.507,308.199,444.293,308.266,444.081,308.266z
					 M485.788,299.636c-0.053,0-0.105-0.004-0.159-0.013c-0.545-0.087-0.917-0.599-0.831-1.145c0.17-1.065,0.256-2.149,0.256-3.221
					c0-0.486-0.017-0.975-0.053-1.465c-0.04-0.551,0.375-1.03,0.926-1.069c0.559-0.04,1.03,0.374,1.069,0.925
					c0.039,0.539,0.058,1.076,0.058,1.609c0,1.177-0.094,2.366-0.28,3.535C486.696,299.286,486.271,299.636,485.788,299.636z
					 M439.635,299.524c-0.429,0-0.825-0.278-0.957-0.71c-0.486-1.602-0.847-3.274-1.073-4.974c-0.073-0.548,0.312-1.05,0.859-1.123
					c0.552-0.067,1.05,0.311,1.123,0.859c0.212,1.592,0.55,3.158,1.004,4.657c0.16,0.528-0.138,1.087-0.667,1.247
					C439.828,299.51,439.731,299.524,439.635,299.524z M438.324,289.789c-0.006,0-0.013,0-0.02,0
					c-0.552-0.011-0.991-0.467-0.981-1.02c0.032-1.667,0.188-3.366,0.462-5.05c0.089-0.545,0.604-0.917,1.148-0.826
					c0.545,0.089,0.914,0.603,0.826,1.148c-0.259,1.59-0.406,3.193-0.436,4.767C439.313,289.354,438.868,289.789,438.324,289.789z
					 M439.896,280.083c-0.097,0-0.195-0.014-0.292-0.044c-0.528-0.16-0.826-0.72-0.665-1.248c0.485-1.591,1.083-3.183,1.779-4.731
					c0.226-0.504,0.818-0.728,1.322-0.503c0.504,0.225,0.729,0.817,0.503,1.321c-0.661,1.473-1.229,2.985-1.69,4.497
					C440.721,279.806,440.324,280.083,439.896,280.083z M443.874,271.082c-0.167,0-0.336-0.042-0.491-0.13
					c-0.481-0.271-0.65-0.882-0.378-1.362c0.82-1.45,1.707-2.882,2.635-4.255c0.31-0.458,0.931-0.578,1.389-0.269
					c0.457,0.309,0.578,0.931,0.269,1.388c-0.898,1.33-1.757,2.716-2.551,4.12C444.562,270.899,444.223,271.082,443.874,271.082z
					 M449.383,262.923c-0.218,0-0.438-0.071-0.622-0.218c-0.432-0.343-0.504-0.973-0.16-1.404c1.008-1.268,2.101-2.546,3.25-3.797
					c0.374-0.406,1.006-0.434,1.413-0.061c0.407,0.374,0.435,1.006,0.061,1.413c-1.116,1.218-2.179,2.459-3.158,3.689
					C449.969,262.794,449.677,262.923,449.383,262.923z M456.028,255.65c-0.261,0-0.522-0.102-0.718-0.305
					c-0.384-0.396-0.374-1.029,0.022-1.414c1.111-1.075,2.302-2.181,3.643-3.379c0.412-0.368,1.044-0.333,1.412,0.079
					c0.368,0.412,0.332,1.043-0.079,1.412c-1.32,1.181-2.493,2.269-3.584,3.326C456.529,255.556,456.278,255.65,456.028,255.65z
					 M463.353,249.054c-0.281,0-0.56-0.118-0.758-0.347c-0.361-0.418-0.314-1.049,0.105-1.41l0.842-0.726
					c0.97-0.835,1.933-1.664,2.88-2.495c0.415-0.366,1.046-0.323,1.411,0.093c0.364,0.415,0.322,1.047-0.093,1.411
					c-0.953,0.835-1.919,1.667-2.894,2.506l-0.841,0.725C463.817,248.974,463.585,249.054,463.353,249.054z M470.735,242.519
					c-0.266,0-0.53-0.105-0.727-0.313c-0.379-0.401-0.361-1.035,0.04-1.414c1.278-1.207,2.398-2.335,3.424-3.447
					c0.374-0.406,1.006-0.433,1.413-0.058c0.406,0.374,0.432,1.007,0.058,1.413c-1.058,1.147-2.21,2.307-3.522,3.546
					C471.228,242.429,470.982,242.519,470.735,242.519z M477.373,235.25c-0.21,0-0.421-0.066-0.602-0.202
					c-0.44-0.333-0.528-0.96-0.195-1.401c0.982-1.3,1.881-2.644,2.67-3.994c0.278-0.477,0.891-0.638,1.368-0.358
					c0.477,0.279,0.637,0.891,0.358,1.368c-0.829,1.418-1.771,2.827-2.801,4.19C477.975,235.113,477.676,235.25,477.373,235.25z
					 M482.322,226.763c-0.131,0-0.264-0.026-0.392-0.081c-0.508-0.217-0.744-0.804-0.527-1.313c0.617-1.445,1.16-2.966,1.613-4.522
					c0.155-0.53,0.708-0.833,1.24-0.68c0.53,0.155,0.834,0.71,0.68,1.24c-0.476,1.631-1.046,3.228-1.693,4.747
					C483.08,226.535,482.71,226.763,482.322,226.763z"/>
			</g>
			<g>
				<path style="fill:#FFFFFF;" d="M485.04,289.76c-0.423,0-0.817-0.271-0.952-0.696c-0.24-0.753-0.527-1.506-0.853-2.236
					c-0.225-0.505,0.001-1.096,0.505-1.321c0.504-0.226,1.096,0.002,1.321,0.505c0.357,0.799,0.67,1.622,0.933,2.445
					c0.168,0.526-0.124,1.089-0.65,1.257C485.243,289.746,485.141,289.76,485.04,289.76z"/>
			</g>
		</g>
		<g>
			<g>
				<path style="fill:#C3D3DD;" d="M111.542,404.14c-0.206,0-0.414-0.064-0.592-0.195c-0.644-0.474-1.313-0.942-2.01-1.407
					c-0.459-0.307-0.583-0.928-0.277-1.387c0.306-0.46,0.925-0.584,1.387-0.277c0.723,0.482,1.418,0.969,2.086,1.462
					c0.445,0.327,0.54,0.953,0.212,1.398C112.152,403.999,111.85,404.14,111.542,404.14z"/>
			</g>
			<g>
				<path style="fill:#C3D3DD;" d="M170.176,481.57c-0.547,0-0.994-0.44-1-0.989c-0.006-0.552,0.436-1.005,0.989-1.011
					c1.597-0.018,3.183-0.183,4.712-0.489c0.544-0.113,1.069,0.243,1.177,0.784c0.108,0.541-0.242,1.068-0.784,1.177
					c-1.652,0.331-3.362,0.509-5.083,0.528C170.183,481.57,170.179,481.57,170.176,481.57z M165.266,481.194
					c-0.054,0-0.108-0.004-0.163-0.014c-1.655-0.272-3.315-0.686-4.937-1.231c-0.523-0.177-0.805-0.743-0.629-1.267
					c0.176-0.523,0.742-0.804,1.267-0.63c1.519,0.512,3.075,0.9,4.623,1.154c0.545,0.089,0.914,0.604,0.825,1.148
					C166.171,480.846,165.747,481.194,165.266,481.194z M179.783,479.629c-0.392,0-0.764-0.231-0.924-0.616
					c-0.212-0.51,0.03-1.096,0.54-1.308c1.454-0.604,2.853-1.357,4.156-2.24c0.458-0.311,1.079-0.19,1.389,0.267
					c0.31,0.457,0.19,1.079-0.268,1.389c-1.414,0.957-2.931,1.775-4.509,2.432C180.041,479.605,179.911,479.629,179.783,479.629z
					 M155.949,478.076c-0.154,0-0.31-0.035-0.457-0.111c-1.482-0.765-2.938-1.653-4.327-2.642c-0.45-0.32-0.555-0.944-0.235-1.395
					c0.321-0.449,0.943-0.554,1.395-0.234c1.311,0.934,2.686,1.772,4.083,2.493c0.491,0.253,0.684,0.857,0.43,1.347
					C156.661,477.878,156.311,478.076,155.949,478.076z M187.897,474.142c-0.253,0-0.507-0.096-0.702-0.288
					c-0.393-0.388-0.398-1.021-0.01-1.414c1.09-1.105,2.1-2.341,3-3.671c0.31-0.456,0.931-0.577,1.389-0.268
					s0.577,0.932,0.268,1.389c-0.969,1.431-2.057,2.762-3.232,3.954C188.414,474.042,188.156,474.142,187.897,474.142z
					 M147.933,472.386c-0.245,0-0.49-0.089-0.683-0.27c-1.211-1.134-2.376-2.372-3.462-3.682c-0.353-0.426-0.294-1.056,0.132-1.408
					c0.425-0.353,1.055-0.293,1.408,0.131c1.032,1.245,2.139,2.422,3.289,3.498c0.403,0.378,0.424,1.011,0.047,1.414
					C148.466,472.28,148.2,472.386,147.933,472.386z M194.359,465.392l-0.937-0.356l-0.892-0.454
					c0.646-1.412,1.105-2.89,1.373-4.413c0.096-0.544,0.61-0.906,1.158-0.813c0.544,0.096,0.907,0.614,0.812,1.158
					C195.577,462.207,195.067,463.847,194.359,465.392z M193.423,465.036h0.01H193.423z M141.611,464.845
					c-0.319,0-0.633-0.152-0.827-0.436c-0.939-1.376-1.833-2.803-2.656-4.24c-0.274-0.479-0.108-1.091,0.371-1.365
					c0.48-0.272,1.09-0.107,1.365,0.371c0.797,1.393,1.663,2.775,2.573,4.108c0.311,0.456,0.194,1.078-0.262,1.39
					C142.001,464.789,141.805,464.845,141.611,464.845z M195.133,456.428c-0.52,0-0.959-0.402-0.997-0.929
					c-0.11-1.545-0.402-3.097-0.869-4.611c-0.163-0.528,0.133-1.088,0.661-1.251c0.526-0.165,1.087,0.133,1.25,0.661
					c0.512,1.66,0.832,3.362,0.953,5.059c0.039,0.552-0.376,1.029-0.927,1.068C195.181,456.427,195.157,456.428,195.133,456.428z
					 M136.718,456.304c-0.374,0-0.733-0.211-0.904-0.572c-0.695-1.468-1.36-3.013-1.975-4.591c-0.201-0.515,0.054-1.095,0.568-1.295
					c0.516-0.204,1.095,0.054,1.295,0.568c0.598,1.535,1.244,3.036,1.919,4.462c0.236,0.499,0.023,1.095-0.476,1.331
					C137.007,456.273,136.861,456.304,136.718,456.304z M133.121,447.133c-0.422,0-0.814-0.269-0.951-0.691
					c-0.473-1.458-0.94-3.016-1.428-4.761c-0.149-0.532,0.162-1.084,0.693-1.232c0.533-0.148,1.084,0.162,1.232,0.693
					c0.481,1.719,0.94,3.251,1.405,4.683c0.17,0.525-0.117,1.09-0.643,1.26C133.327,447.118,133.223,447.133,133.121,447.133z
					 M192.27,447.077c-0.348,0-0.686-0.182-0.871-0.506c-0.777-1.369-1.703-2.653-2.752-3.817c-0.37-0.41-0.337-1.042,0.074-1.412
					c0.41-0.37,1.042-0.337,1.413,0.074c1.145,1.271,2.156,2.673,3.005,4.167c0.272,0.48,0.105,1.091-0.376,1.363
					C192.607,447.035,192.437,447.077,192.27,447.077z M185.712,439.816c-0.199,0-0.4-0.06-0.575-0.183
					c-1.286-0.906-2.671-1.662-4.117-2.247c-0.512-0.206-0.76-0.789-0.553-1.302c0.207-0.511,0.79-0.759,1.302-0.552
					c1.589,0.642,3.109,1.472,4.52,2.466c0.451,0.318,0.56,0.942,0.241,1.393C186.336,439.668,186.027,439.816,185.712,439.816z
					 M130.429,437.649c-0.444,0-0.85-0.298-0.967-0.748l-0.262-1.009c-0.328-1.262-0.653-2.514-0.986-3.753
					c-0.144-0.533,0.173-1.082,0.706-1.226c0.535-0.145,1.083,0.173,1.226,0.706c0.335,1.245,0.661,2.502,0.991,3.771l0.262,1.007
					c0.139,0.534-0.181,1.08-0.716,1.22C130.597,437.638,130.512,437.649,130.429,437.649z M127.821,428.14
					c-0.427,0-0.822-0.275-0.955-0.704c-0.521-1.682-1.039-3.184-1.584-4.593c-0.199-0.516,0.057-1.095,0.572-1.294
					c0.517-0.197,1.094,0.057,1.293,0.571c0.562,1.453,1.095,2.998,1.629,4.724c0.163,0.527-0.132,1.088-0.659,1.251
					C128.018,428.125,127.919,428.14,127.821,428.14z M124.226,418.978c-0.366,0-0.718-0.201-0.894-0.55
					c-0.734-1.457-1.544-2.856-2.407-4.159c-0.305-0.46-0.179-1.081,0.282-1.386c0.46-0.306,1.081-0.18,1.386,0.282
					c0.905,1.367,1.755,2.835,2.525,4.362c0.248,0.493,0.05,1.095-0.443,1.343C124.53,418.944,124.377,418.978,124.226,418.978z
					 M118.79,410.794c-0.281,0-0.561-0.118-0.758-0.348c-1.025-1.191-2.152-2.35-3.347-3.442c-0.408-0.373-0.436-1.005-0.063-1.413
					c0.372-0.407,1.005-0.435,1.413-0.063c1.254,1.146,2.436,2.362,3.513,3.614c0.36,0.419,0.313,1.05-0.105,1.41
					C119.253,410.715,119.021,410.794,118.79,410.794z"/>
			</g>
			<g>
				<path style="fill:#C3D3DD;" d="M176.53,436.136c-0.049,0-0.099-0.004-0.149-0.011c-0.783-0.117-1.585-0.191-2.383-0.221
					c-0.552-0.02-0.983-0.483-0.963-1.036c0.02-0.552,0.492-0.999,1.036-0.962c0.873,0.032,1.75,0.112,2.605,0.24
					c0.546,0.082,0.923,0.591,0.842,1.137C177.443,435.78,177.016,436.136,176.53,436.136z"/>
			</g>
		</g>
	</g>
	<g>
		<rect x="657.825" y="362.445" style="fill:#FFFFFF;" width="244.47" height="3"/>
	</g>
</g>
<g id="TEXTS">
	<g>
		
			<text transform="matrix(1 0 0 1 713.4901 128.246)" style="fill:#82B369; font-family:'MontserratRoman-ExtraBold'; font-size:27.1438px;">BOOK CLUB</text>
	</g>
	<g>
		<g>
			
				<text transform="matrix(1 0 0 1 676.4088 299.8604)" style="fill:#FFFFFF; font-family:'MontserratRoman-Regular'; font-size:56.1341px;">50% OFF</text>
		</g>
		<g>
			
				<text transform="matrix(1 0 0 1 682.693 342.2068)" style="fill:#FFFFFF; font-family:'MontserratRoman-Regular'; font-size:28px;">- ALL PRODUCT -</text>
		</g>
		
			<text transform="matrix(1 0 0 1 682.3282 235.4332)" style="fill:#FFFFFF; font-family:'MontserratRoman-Bold'; font-size:94.4747px;">SALE</text>
	</g>
	<text transform="matrix(1 0 0 1 678.9205 385.9943)"><tspan x="0" y="0" style="fill:#FFFFFF; font-family:'MontserratRoman-Regular'; font-size:9.5px;">Lorem ipsum dolor sit amet, consectetur adipiscing</tspan><tspan x="5.557" y="12" style="fill:#FFFFFF; font-family:'MontserratRoman-Regular'; font-size:9.5px;">elit, sed do eiusmod tempor incididunt ut labore</tspan><tspan x="54.3" y="24" style="fill:#FFFFFF; font-family:'MontserratRoman-Regular'; font-size:9.5px;">et dolore magna aliqua.</tspan></text>
</g>
</svg>
