<svg width="1280" height="1280" viewBox="0 0 1280 1280" fill="none" xmlns="http://www.w3.org/2000/svg">
<path d="M539.6 912.1L137.2 983.9L476.8 779.3L107.2 638.3L522.9 514.9L357.7 178.3L721.1 400.3L999.8 69.8L914 564.2L1182.4 613.6L903.4 816.1L1151.5 1172.7L692.3 998.9L395.2 1211.5L539.6 912.1Z" fill="#FCEE21"/>
<path d="M979.6 113.2L903.8 549.9L899.6 574.3L923.9 578.8L1151.5 620.7L906 798.8L886.2 813.2L900.2 833.3L1118.3 1146.8L703 989.6L690.5 984.9L679.6 992.7L427.7 1172.9L540.2 939.6L561.5 895.5L513.3 904.1L201.5 959.7L461.2 803.2L505.1 776.7L457.2 758.4L146.1 639.8L512.3 531.1L540.7 522.7L527.7 496.1L387.8 211.4L705.4 405.5L723.7 416.7L737.5 400.3L979.6 113.2ZM1020 26.4L718.5 384.1L327.5 145.2L505.2 507.1L68.3 636.8L448.4 781.8L72.9 1008.1L517.8 928.7L362.7 1250.1L694.2 1013L1184.8 1198.7L920.6 819L1213.3 606.6L928.4 554.2L1020 26.4Z" fill="black"/>
<path d="M296.9 359.7L123 465.3L201.8 1009.6L529 1078L618.2 150L399.6 294.2L296.9 359.7Z" fill="#FCF4E1" stroke="black" stroke-width="25" stroke-linecap="round" stroke-linejoin="round"/>
<path d="M245.6 945.1L486.9 990L553 293.9L182.1 512.6L245.6 945.1Z" fill="#F7921E" stroke="black" stroke-width="30" stroke-miterlimit="10" stroke-linecap="round" stroke-linejoin="round"/>
<path d="M425.6 594.6C430.9 586.6 436.7 578.7 440.7 569.8C451.3 546.8 446.5 525.5 430.1 507.8C423 500.7 415 495 406.2 491C378.7 477.7 349.9 475.9 320.3 484.4C299.5 489.7 288.4 502.6 287.1 523.8C282.7 594.2 276.9 664.7 279.1 735.1C279.5 750.6 280 765.7 283.1 780.7C287.1 802.4 307.5 811.3 325.6 799.7C335.8 793.1 346 789.1 356.6 784.6C380.5 775.7 402.2 763.8 420.4 746.1C433.7 733.7 444.3 719.5 451 702.7C463.4 671.7 455.9 642 429.7 621.2C424.8 617.2 419.5 614.1 413.8 609.7C418 604.3 422 599.9 425.6 594.6ZM337.4 656.6C355.1 657 371.5 657.5 387.5 663.7C397.7 667.7 400.8 674.8 395.9 684.5C392.8 690.3 389.3 695.1 385.3 700C373.3 713.3 358.3 722.6 337.5 730.6C333.4 704 336.1 681.4 337.4 656.6ZM345.8 537.5C360.9 537.1 374.6 535.7 387 547.7C378.1 567.2 361.7 578.7 340.9 592C341.4 570.7 341.9 554.7 345.8 537.5Z" fill="white"/>
<path d="M1189.3 771.8C1178.2 771.8 1166.2 762.5 1165.6 736.3V736.1V735.9C1165.7 729.6 1166.1 722.9 1166.8 716.1C1167.5 703.7 1168.5 688.2 1169.4 673.2C1170.1 662.7 1170.7 652.4 1171.2 644.1C1167.8 649.3 1164.3 654.5 1160.7 659.4C1156.3 666 1151.4 671.7 1145.2 677.6L1145 677.8L1144.8 677.9C1138.6 683.2 1132.1 685.9 1125.6 685.9C1119.2 685.9 1107.4 683.1 1099.6 664.4C1098.1 660.7 1096.8 656.8 1095.7 652.8C1093.7 666.5 1088.8 699.1 1088.8 699.1C1087.9 704.5 1087.1 710.1 1086.3 715.5C1085.5 721 1084.7 726.7 1083.8 732.3V732.4C1079.9 754.2 1070.2 766.7 1057.1 766.7C1055.7 766.7 1054.3 766.5 1052.9 766.2C1041.3 763.6 1029.5 750.3 1034 721.5C1034.9 715.4 1035.7 709 1036.4 702.8C1036.8 699.6 1037.1 696.4 1037.5 693.1L1038.5 686C1043.8 648.9 1049.2 610.5 1058.2 573.8C1059.9 565.8 1062.3 557.6 1065.6 548C1069.1 538.2 1077.3 515.6 1097.1 514.9C1097.4 514.9 1097.7 514.9 1098 514.9C1119.1 514.9 1125.4 538.7 1127.5 546.5V546.7C1129.8 555.9 1131.6 565.5 1133.3 574.8C1133.9 578.2 1134.6 581.6 1135.3 585C1135.9 588 1136.4 591.6 1137 595.5C1139.4 591 1141.7 586.7 1143.8 583.8C1150.8 573.8 1157.7 564.2 1164.7 554.9L1164.8 554.7L1164.9 554.5C1170 548.4 1174.9 543.6 1179.7 539.8L1179.8 539.7L1179.9 539.6C1185.3 535.7 1190.9 533.7 1196.4 533.7C1210.5 533.7 1220.7 545.9 1223.8 566.3V566.6C1224.7 574.2 1225 581.6 1224.7 589.3C1224.2 602.8 1223.5 616.4 1222.8 629.6C1222.4 636.3 1222.1 642.9 1221.8 649.6V649.7C1220.5 670.1 1219.3 690.1 1218.1 710.1C1217.9 713 1217.7 716 1217.6 718.9C1217.3 724.9 1217 731 1216.2 737.2C1213.8 758.1 1203.3 771.6 1189.4 771.6C1189.8 771.8 1189.4 771.8 1189.3 771.8ZM952.9 759.9C933.6 759.9 916.7 745.6 907.7 721.6V721.5C901.1 703 897.8 682.3 898.3 661.6V661.5C898.5 656 898.9 650.5 899.3 645.3C899.5 642.6 899.7 640 899.9 637.4C902.1 601.4 906.6 578.1 916.1 554.5C918.8 547.9 921.6 542.4 924.5 537.6C930.6 527.7 938.4 519.5 947.1 514C949.3 512.5 966.8 500.9 986.6 500.9C999.7 500.9 1011.3 506 1020.2 515.5C1027.2 522.9 1033.5 533.9 1038.8 548.3C1038.9 548.5 1038.9 548.6 1038.9 548.7L1039.1 549L1039.3 549.7C1045.2 568.6 1047.5 589.6 1045.9 610.6C1042.5 660.7 1026.6 702.4 998.8 734.5C989.6 745 978.9 752.5 966.2 757.4C962 759.1 957.5 759.9 952.9 759.9ZM962.9 588.3C962.4 590 961.8 591.7 961.2 593.4C959.9 597.3 958.5 601.3 957.7 605.1V605.2C952.4 627.6 948.3 647.9 950.3 668.9V669C951.7 686 955.9 689.9 956.6 689.9C957.8 689.9 961.4 688.4 966.7 683C982 666.7 991.3 643.7 994.4 614.6C995.8 600.6 994.8 589 991.5 579.1C988.9 572 985 567.7 981.2 567.7C979.1 567.7 976.6 568.9 974.1 571.1C968.8 576 965.2 581.5 962.9 588.3ZM803.5 745.2C784.2 745.2 767.3 730.9 758.3 706.9V706.8C751.7 688.3 748.4 667.6 748.9 646.9V646.8C749.1 641.3 749.5 635.8 749.9 630.6C750.1 627.9 750.3 625.3 750.5 622.7C752.7 586.7 757.2 563.5 766.7 539.8C769.4 533.2 772.2 527.7 775.1 522.9C781.2 513 789 504.8 797.7 499.3C799.9 497.8 817.4 486.2 837.2 486.2C850.3 486.2 861.9 491.3 870.8 500.8C877.8 508.2 884.1 519.2 889.4 533.6C889.5 533.8 889.5 533.9 889.5 534L889.7 534.3L889.9 535C895.8 553.9 898.1 574.9 896.5 595.9C893.1 646 877.2 687.7 849.3 719.8C840.1 730.3 829.5 737.8 816.7 742.7C812.6 744.4 808.1 745.2 803.5 745.2ZM813.5 573.6C813 575.3 812.4 576.9 811.8 578.7C810.5 582.6 809.1 586.6 808.3 590.4V590.5C803 612.9 798.9 633.2 800.9 654.2V654.3C802.3 671.3 806.5 675.2 807.2 675.2C808.4 675.2 812 673.7 817.3 668.3C832.6 652 841.9 629 845 599.9C846.4 585.9 845.4 574.3 842.1 564.4C839.5 557.3 835.6 553 831.8 553C829.7 553 827.2 554.2 824.7 556.4C819.3 561.3 815.8 566.8 813.5 573.6ZM654 730.5C634.7 730.5 617.8 716.2 608.8 692.2V692.1C602.2 673.6 598.9 652.9 599.4 632.2V632.1C599.6 626.6 600 621.1 600.4 615.9C600.6 613.2 600.8 610.6 601 608C603.2 572 607.7 548.7 617.2 525.1C619.9 518.5 622.7 513 625.6 508.2C631.7 498.3 639.5 490.1 648.2 484.6C650.4 483.1 667.9 471.5 687.7 471.5C700.8 471.5 712.4 476.6 721.3 486.1C728.3 493.5 734.6 504.5 739.9 518.9C740 519.1 740 519.2 740 519.3L740.2 519.6L740.4 520.3C746.3 539.2 748.6 560.2 747 581.2C743.6 631.3 727.7 673 699.8 705.1C690.6 715.6 679.9 723.1 667.2 728C663.1 729.7 658.6 730.5 654 730.5ZM664 558.9C663.5 560.6 662.9 562.3 662.3 564C661 567.9 659.6 571.9 658.8 575.7V575.8C653.5 598.2 649.4 618.5 651.4 639.5V639.6C652.8 656.6 657 660.5 657.7 660.5C658.9 660.5 662.5 659 667.8 653.6C683.1 637.3 692.4 614.3 695.5 585.2C696.9 571.2 695.9 559.6 692.6 549.7C690 542.6 686.1 538.3 682.3 538.3C680.2 538.3 677.7 539.5 675.2 541.7C669.9 546.6 666.3 552.1 664 558.9Z" fill="white"/>
<path d="M687.8 480.5C697 480.5 706.6 483.5 714.9 492.3C725.5 503.4 731.6 522.2 732 523C737.5 540.6 739.7 560.5 738.3 580.5C735 629.3 719.7 668.9 693.3 699.2C684.6 709.2 674.8 715.6 664.2 719.6C660.9 720.9 657.5 721.5 654 721.5C640 721.5 625.4 710.9 617.3 689C611.3 672.1 608 652.5 608.5 632.4C608.8 624.3 609.6 616.2 610.1 608.6C612.1 575.5 616.1 552.3 625.7 528.5C628 522.9 630.5 517.7 633.4 513C639 503.9 645.9 496.8 653.3 492.1C654.9 490.9 670.5 480.5 687.8 480.5ZM657.7 669.5C662.4 669.5 668 666.3 674.3 659.8C691.2 641.7 701.2 616.4 704.4 586.1C705.8 571.9 705.1 558.7 701.1 546.7C697 535.3 690 529.3 682.4 529.3C678.1 529.3 673.6 531.2 669.3 535C663.6 540.2 658.7 546.7 655.5 556.1C653.7 561.7 651.4 567.7 650 573.8C644.9 595.7 640.2 617.7 642.5 640.4C644 659.6 649.5 669.5 657.7 669.5ZM837.3 495.2C846.5 495.2 856.1 498.2 864.4 507C875 518.1 881.1 536.9 881.5 537.7C887 555.3 889.2 575.2 887.8 595.2C884.5 644 869.2 683.6 842.8 713.9C834.1 723.9 824.3 730.3 813.7 734.3C810.4 735.6 807 736.2 803.5 736.2C789.5 736.2 774.9 725.6 766.8 703.7C760.8 686.8 757.5 667.2 758 647.1C758.3 639 759.1 630.9 759.6 623.3C761.6 590.2 765.6 567 775.2 543.2C777.5 537.6 780 532.4 782.9 527.7C788.5 518.6 795.4 511.5 802.8 506.8C804.3 505.6 820 495.2 837.3 495.2ZM807.2 684.2C811.9 684.2 817.5 681 823.8 674.5C840.7 656.4 850.7 631.1 853.9 600.8C855.3 586.6 854.6 573.4 850.6 561.4C846.5 550 839.5 544 831.9 544C827.6 544 823.1 545.9 818.8 549.7C813.1 554.9 808.2 561.4 805 570.8C803.2 576.4 800.9 582.4 799.5 588.5C794.4 610.4 789.7 632.4 792 655.1C793.5 674.3 798.9 684.2 807.2 684.2ZM986.7 509.9C995.9 509.9 1005.5 512.9 1013.8 521.7C1024.4 532.8 1030.5 551.6 1030.9 552.4C1036.4 570 1038.6 589.9 1037.2 609.9C1033.9 658.7 1018.6 698.3 992.2 728.6C983.5 738.6 973.7 745 963.1 749C959.8 750.3 956.4 750.9 952.9 750.9C938.9 750.9 924.3 740.3 916.2 718.4C910.2 701.5 906.9 681.9 907.4 661.8C907.7 653.7 908.5 645.6 909 638C911 604.9 915 581.7 924.6 557.9C926.9 552.3 929.4 547.1 932.3 542.4C937.9 533.3 944.8 526.2 952.2 521.5C953.8 520.3 969.4 509.9 986.7 509.9ZM956.7 698.9C961.4 698.9 967 695.7 973.3 689.2C990.2 671.1 1000.2 645.8 1003.4 615.5C1004.8 601.3 1004.1 588.1 1000.1 576.1C996 564.7 989 558.7 981.4 558.7C977.1 558.7 972.6 560.6 968.3 564.4C962.6 569.6 957.7 576.1 954.5 585.5C952.7 591.1 950.4 597.1 949 603.2C943.9 625.1 939.2 647.1 941.5 669.8C943 689 948.4 698.9 956.7 698.9ZM1098.2 524.1C1109.5 524.1 1115.2 535 1119 549.1C1122 561.4 1124.2 574.4 1126.7 587C1128.6 595.7 1129.5 613.6 1133 616.7C1133.2 616.9 1133.4 617 1133.7 617C1137.4 617 1146.2 596.6 1151.4 589.1C1158 579.7 1165 569.9 1172.1 560.6C1176.3 555.6 1180.7 551 1185.6 547.2C1189.6 544.3 1193.4 543 1196.9 543C1206 543 1213 552.1 1215.4 567.9C1216.2 574.9 1216.5 581.9 1216.3 589.3C1215.6 609.4 1214.3 629.4 1213.4 649.4C1212.1 669.8 1210.9 689.8 1209.7 709.8C1209.1 718.6 1208.9 727.5 1207.8 736.3C1205.9 752.7 1198.8 762.8 1189.9 762.8H1189.8C1189.7 762.8 1189.6 762.8 1189.4 762.8C1180.6 762.8 1175.1 752.6 1174.7 736.2C1174.8 730 1175.2 723.5 1175.8 717C1177.5 687.4 1180.8 638.9 1181.1 627.7C1181.7 616.9 1181.9 616.6 1181 616.1H1180.9C1179.9 616.1 1175.1 622.2 1173.4 624.7C1166.7 634.5 1160.2 645.1 1153.3 654.5C1148.9 661 1144.2 666.4 1139 671.3C1134.4 675.2 1129.9 677.2 1125.6 677.2C1118.6 677.2 1112.3 671.9 1107.9 661.3C1104.3 652.4 1102.1 641.8 1099.6 631.8C1096.3 617.2 1096.9 618.4 1095.5 615.9C1095.3 615.6 1095.1 615.5 1094.9 615.5C1093.4 615.5 1091.5 621.3 1091 623.9C1087.4 648.3 1083.7 673.1 1080 697.9C1078.2 708.9 1076.8 720 1075 731.1C1072 747.8 1065.2 758 1057.2 758C1056.5 758 1055.7 757.9 1055 757.7C1046 755.7 1039.7 744.2 1043 723.2C1044.4 713.7 1045.4 704.1 1046.6 694.5C1052.2 654.8 1057.7 614.7 1067.2 576.1C1069.1 567.4 1071.6 559.1 1074.4 551.3C1079.5 537.1 1086.2 524.6 1097.7 524.2C1097.8 524.1 1098 524.1 1098.2 524.1ZM687.8 462.5C665.7 462.5 647 474.6 643.3 477.1C633.6 483.3 624.8 492.5 618 503.5C614.7 508.7 611.8 514.7 608.9 521.6V521.7V521.8C599 546.4 594.3 570.4 592.1 607.5C591.9 610 591.7 612.5 591.5 615.2C591.1 620.6 590.7 626.1 590.4 631.8V631.9V632C589.9 653.8 593.3 675.6 600.3 695.1V695.2V695.3C605.3 708.7 612.6 719.5 621.8 727.2C631.3 735.2 642.5 739.5 653.9 739.5C659.6 739.5 665.2 738.4 670.5 736.4C684.5 731.1 696.7 722.6 706.7 711C720.6 695 731.6 676.8 739.8 656.5C740.4 675 743.7 693.2 749.7 709.8V709.9V710C754.7 723.4 762 734.2 771.2 741.9C780.7 749.9 791.9 754.2 803.3 754.2C809 754.2 814.6 753.1 819.9 751.1C833.9 745.8 846.1 737.3 856.1 725.7C870 709.7 881 691.5 889.2 671.2C889.8 689.7 893.1 707.9 899.1 724.5V724.6V724.7C904.1 738.1 911.4 748.9 920.6 756.6C930.1 764.6 941.3 768.9 952.7 768.9C958.4 768.9 964 767.8 969.3 765.8C983.3 760.5 995.5 752 1005.5 740.4C1013.3 731.5 1020.1 721.8 1026.1 711.5C1025.7 714.5 1025.3 717.4 1024.9 720.4C1019.4 755.2 1035.4 771.7 1050.7 775.2C1052.7 775.7 1054.8 775.9 1056.9 775.9C1062.8 775.9 1073.9 773.9 1082.7 760.6C1087.2 753.8 1090.5 744.9 1092.4 734.1V734V733.9C1093.3 728.2 1094.2 722.5 1095 716.9C1095.8 711.6 1096.6 706 1097.4 700.7V700.5V700.3C1098.3 694.5 1099.1 688.6 1100 682.8C1109.3 693.4 1120.1 694.8 1125.2 694.8C1131.2 694.8 1140.4 693 1150.3 684.6L1150.6 684.3L1150.9 684C1154.2 680.9 1157.1 677.9 1159.8 674.7C1158.9 688.9 1158 703.5 1157.3 715.3C1156.6 722.3 1156.2 729.1 1156.1 735.6V735.9V736.2C1156.3 747.3 1158.5 756.7 1162.5 764C1168.3 774.5 1177.8 780.5 1188.8 780.5C1189 780.5 1189.2 780.5 1189.3 780.5C1199.7 780.5 1209.1 775.2 1215.7 765.6C1220.6 758.5 1223.8 749 1225 738.2C1225.8 731.7 1226.1 725.4 1226.5 719.3C1226.7 716.3 1226.8 713.6 1227 710.8V710.7V710.6C1228.2 690.6 1229.4 670.6 1230.7 650.2V650.1V650C1231 643.4 1231.4 636.6 1231.7 630C1232.4 616.8 1233.1 603.2 1233.6 589.6V589.5V589.4C1233.8 581.3 1233.5 573.5 1232.6 565.4V565.1V564.8C1228.1 535.1 1210.9 524.5 1196.3 524.5C1188.8 524.5 1181.5 527.1 1174.5 532.1L1174.2 532.3L1173.9 532.5C1168.6 536.7 1163.3 541.9 1157.7 548.5L1157.4 548.8L1157.1 549.2C1151.8 556.2 1146.6 563.4 1141.4 570.7C1139.8 562 1138 553.1 1135.9 544.4V544.2V544C1133.2 533.7 1129.8 526.1 1125.4 520.2C1118.5 510.8 1108.6 505.7 1097.7 505.7C1097.3 505.7 1096.9 505.7 1096.5 505.7C1070.7 506.6 1060.7 534.3 1056.9 544.7V544.8V544.9C1054.8 551 1053 556.5 1051.6 561.8C1050.5 556.6 1049.2 551.6 1047.7 546.7L1047.2 545.2L1046.9 544.7C1041.2 529.3 1034.3 517.2 1026.4 509C1015.7 497.6 1001.8 491.5 986.2 491.5C964.1 491.5 945.3 503.6 941.7 506.1C932 512.3 923.2 521.5 916.4 532.5C913.1 537.7 910.2 543.7 907.3 550.6V550.7V550.8C906.2 553.7 905.1 556.5 904.1 559.4C902.9 550 900.9 540.8 898.1 532.1L897.6 530.6L897.3 530.1C891.6 514.7 884.7 502.6 876.8 494.4C866.1 483 852.2 476.9 836.6 476.9C814.5 476.9 795.8 489 792.1 491.5C782.4 497.7 773.6 506.9 766.8 517.9C763.5 523.1 760.6 529.1 757.7 536V536.1V536.2C756.6 539.1 755.5 541.9 754.5 544.8C753.3 535.4 751.3 526.2 748.5 517.5L748 516L747.7 515.5C742 500.1 735.1 488 727.2 479.8C717.3 468.5 703.4 462.5 687.8 462.5ZM681.2 548.4C681.4 548.2 681.6 548.1 681.7 548C682.4 548.9 683.2 550.4 684.1 552.7C687 561.3 687.7 571.7 686.5 584.3C683.6 611.2 675.2 632.4 661.5 647.2C661.1 645.1 660.7 642.4 660.4 638.9V638.8V638.7C658.5 619.1 662.5 599.6 667.6 578V577.9V577.8C668.3 574.5 669.6 570.9 670.9 567C671.5 565.3 672.1 563.6 672.6 561.8C674.4 556.4 677.1 552.3 681.2 548.4ZM830.7 563.1C830.9 562.9 831.1 562.8 831.2 562.7C831.9 563.6 832.7 565.1 833.6 567.4C836.5 576 837.2 586.4 836 599C833.1 625.9 824.7 647.1 811 661.9C810.6 659.8 810.2 657.1 809.9 653.6V653.5V653.4C808 633.8 812 614.3 817.1 592.7V592.6V592.5C817.8 589.2 819.1 585.6 820.4 581.7C821 580 821.6 578.3 822.1 576.5C823.8 571.1 826.5 567 830.7 563.1ZM980.1 577.8C980.3 577.6 980.5 577.5 980.6 577.4C981.3 578.3 982.1 579.8 983 582.1C985.9 590.7 986.6 601.1 985.4 613.7C982.5 640.6 974.1 661.8 960.4 676.6C960 674.5 959.6 671.8 959.3 668.3V668.2V668.1C957.4 648.5 961.4 629 966.5 607.4V607.3V607.2C967.2 603.9 968.5 600.3 969.8 596.4C970.4 594.7 971 593 971.5 591.2C973.3 585.8 976 581.7 980.1 577.8Z" fill="black"/>
<path d="M919.9 972.3C918.7 972.3 917.5 972.2 916.3 972.1C905.3 970.6 897.1 964 894.5 954.4L894.4 954.1C893.2 949 893 943.7 893.9 938.7C897.3 916.3 901.2 891 905.5 866.5C907.9 852.9 910.5 839.3 912.9 826C915.4 812.8 917.9 799.2 920.3 785.8C921 781 922.8 774 929.2 768.5C934.2 764 940.7 761.5 947.4 761.5C958.6 761.5 968.2 768.1 971.7 778.4L971.8 778.6L971.9 778.8C973.5 784.2 973.9 789.7 973.1 794.7C972.8 797 972.4 799.3 972 801.7C973.3 800.8 974.6 800 975.9 799.1C982.3 794.9 989 790.5 995.8 786.5C1000 783.7 1004.2 781.8 1008.7 780.8C1011 780.2 1013.3 779.9 1015.7 779.9C1024.8 779.9 1033.5 784.6 1038.4 792.3L1038.6 792.6L1038.8 792.9C1044.1 802.8 1042 815.1 1034 822.3C1030.5 825.4 1026.4 827.9 1022.1 830.3C1020.6 831.3 1019 832.2 1017.4 833.2C1012.9 835.9 1008.7 838.5 1004.8 841.7C1005.4 844.2 1006.1 846.7 1006.7 849.3C1008.6 856.7 1010.5 864.3 1012.6 871.6C1014.9 879.9 1017.5 888.3 1020.1 896.4C1021.6 901.2 1023.1 906.1 1024.6 911C1025.8 914.8 1027.2 919.3 1028 923.9V924.1V924.3C1029.6 936.9 1021.9 948.2 1009.5 951.8H1009.4C1007.2 952.4 1004.9 952.7 1002.6 952.7C992.5 952.7 983.3 947 978.5 937.9L978.4 937.7L978.3 937.5C975.8 932.1 974.2 927.5 973 923.1C970.5 914.9 968.1 906.7 965.6 898.4C963.3 890.6 960.9 882.8 958.6 875C956 891.1 953.2 907.3 950.4 923.1L950.2 924.2C948.9 932.2 947.6 940.5 946 948.5C945.2 952.9 943.4 957.5 940.9 961.5L940.8 961.7L940.7 961.9C936 968.4 928.2 972.3 919.9 972.3ZM813.2 940.7C793.4 940.7 774.3 930.7 763.3 914.6L763.2 914.5C754.9 901.8 750.3 887.7 749.9 873.6V873.4C749.9 869.7 750.1 866.2 750.3 862.8C750.4 861.2 750.5 859.6 750.6 858C751.4 834.6 755.6 818.8 765.1 803.6L765.2 803.5C768 799.2 770.8 795.6 774 792.4C780.3 786.2 788.4 781.2 797.5 778C799.5 777.2 815.1 771.6 833.6 771.6C848.1 771.6 860.7 775 871 781.8C878.8 786.8 886.1 794.2 892.6 803.8V803.9L892.9 804.2L893.4 805C901 818 904.5 832.4 903.7 846.7C902.1 879.9 886.4 906.9 857 926.8C847.7 933.1 836.7 937.4 823.6 939.8C820.3 940.3 816.8 940.7 813.2 940.7ZM813.7 831.1C813.2 832.2 812.6 833.2 812.1 834.3C810.9 836.6 809.8 838.8 809.2 840.7L809.1 840.9C804.7 854 801.4 865.9 804.1 877.8V878C806.6 889.9 811.8 889.9 813.6 889.9C815.8 889.9 819.6 889.2 825.4 885.8C839.8 876.8 848.1 863.8 850 847.2C850.7 839.6 849.5 833.4 846.2 827.9C842.9 823 837.7 820.2 832 820.2C829.1 820.2 826.2 820.9 823.4 822.3C818.5 824.9 815.5 827.7 813.7 831.1ZM653.7 925C633.9 925 614.8 915 603.8 898.9L603.7 898.8C595.4 886.1 590.8 872 590.4 857.9V857.7C590.4 854 590.6 850.5 590.8 847.1C590.9 845.5 591 843.8 591.1 842.3C591.9 818.9 596.1 803.1 605.6 787.9L605.7 787.8C608.5 783.5 611.3 779.9 614.5 776.7C620.8 770.5 628.9 765.5 638 762.3C640 761.5 655.6 755.9 674.1 755.9C688.6 755.9 701.2 759.3 711.5 766.1C719.3 771.1 726.6 778.5 733.1 788.1V788.2L733.4 788.5L733.9 789.3C741.5 802.3 745 816.7 744.2 831C742.7 864.2 726.9 891.2 697.5 911.1C688.2 917.4 677.2 921.7 664.1 924.1C660.8 924.6 657.3 925 653.7 925ZM654.2 815.4C653.7 816.5 653.1 817.5 652.6 818.6C651.4 820.9 650.3 823.1 649.7 825L649.6 825.2C645.2 838.3 641.9 850.2 644.6 862.1V862.3C647.1 874.2 652.3 874.2 654.1 874.2C656.3 874.2 660.1 873.5 665.9 870.1C680.3 861.1 688.6 848.1 690.5 831.5C691.2 823.9 690 817.7 686.7 812.2C683.4 807.3 678.2 804.5 672.5 804.5C669.6 804.5 666.7 805.2 663.9 806.6C659 809.2 656 812 654.2 815.4Z" fill="white"/>
<path d="M674.1 764.9C684.8 764.9 696.4 767 706.6 773.6C718.3 781.1 725.6 793.2 726.1 793.8C732.7 805.1 735.9 817.9 735.2 830.5C733.8 861.2 719.2 885.6 692.5 903.6C683.7 909.5 673.5 913.2 662.4 915.2C659.6 915.8 656.6 916 653.6 916C638.2 916 621.2 908.7 611.2 893.8C604.1 882.9 599.7 870.3 599.4 857.6C599.4 852.5 599.9 847.4 600.1 842.6C600.8 821.8 604.1 807.2 613.2 792.6C615.4 789.2 617.8 786 620.8 783.1C626.4 777.6 633.4 773.4 641.1 770.7C642.6 770.2 657.1 764.9 674.1 764.9ZM654.2 883.2C659 883.2 664.5 881.4 670.7 877.7C687.9 867 697.4 851.4 699.6 832.4C700.5 823.5 699.2 815.1 694.4 807.3C689.3 799.6 681.2 795.5 672.7 795.5C668.5 795.5 664.2 796.5 660 798.6C654.1 801.7 649.2 805.6 646.3 811.4C644.6 814.9 642.4 818.6 641.2 822.3C636.7 836 632.7 849.7 636 864.1C638.5 876.7 645 883.2 654.2 883.2ZM947.4 770.4C954.2 770.4 960.8 774.3 963.2 781.3C964.4 785.3 964.8 789.5 964.1 793.3C963.1 801.2 961.2 809.1 959.4 819.4C964.7 816.3 967.8 814.6 970.9 813C980.8 806.7 990.5 800.1 1000.6 794C1003.7 791.9 1007.1 790.3 1010.9 789.4C1012.5 788.9 1014.1 788.7 1015.7 788.7C1021.8 788.7 1027.5 791.8 1030.8 796.9C1033.9 802.8 1033.1 810.8 1027.9 815.3C1025 817.9 1021.1 820.2 1017.4 822.3C1009.8 827.1 1001.6 831.5 994.6 838.3C997.7 850 1000.5 862 1003.8 873.7C1007.5 887 1011.8 900 1015.8 913.3C1017 917.1 1018.2 921.1 1018.9 925C1019.9 933.4 1015 940.4 1006.8 942.8C1005.3 943.2 1003.8 943.4 1002.3 943.4C995.8 943.4 989.5 939.7 986.2 933.5C984.2 929.2 982.5 924.9 981.4 920.4C976.4 903.9 971.4 887.1 966.4 870.5C965.1 867.5 963.8 864.4 962.5 861.6L950.1 868.9C947.3 886.4 944.3 903.8 941.2 921.3C939.8 929.7 938.5 938.3 936.8 946.7C936.2 950 934.8 953.6 932.9 956.5C929.9 960.7 924.9 963.1 919.6 963.1C918.8 963.1 918 963 917.2 962.9C910.1 962 904.7 958.3 902.9 951.8C902 947.8 901.8 943.7 902.5 939.8C906.2 915.6 909.9 891.6 914.1 867.7C918.9 840.7 924.2 814 928.9 786.9C929.6 782.1 931.1 778.1 934.9 774.8C938.8 771.9 943.2 770.4 947.4 770.4ZM833.6 780.6C844.3 780.6 855.9 782.7 866.1 789.3C877.8 796.8 885.1 808.9 885.6 809.5C892.2 820.8 895.4 833.6 894.7 846.2C893.3 876.9 878.7 901.3 852 919.3C843.2 925.2 833 928.9 821.9 930.9C819.1 931.5 816.1 931.7 813.1 931.7C797.7 931.7 780.7 924.4 770.7 909.5C763.6 898.6 759.2 886 758.9 873.3C758.9 868.2 759.4 863.1 759.6 858.3C760.3 837.5 763.6 822.9 772.7 808.3C774.9 804.9 777.3 801.7 780.3 798.8C785.9 793.3 792.9 789.1 800.6 786.4C802.2 785.9 816.6 780.6 833.6 780.6ZM813.7 898.9C818.5 898.9 824 897.1 830.2 893.4C847.4 882.7 856.9 867.1 859.1 848.1C860 839.2 858.7 830.8 853.9 823C848.8 815.3 840.7 811.2 832.2 811.2C828 811.2 823.7 812.2 819.5 814.3C813.6 817.4 808.7 821.3 805.8 827.1C804.1 830.6 801.9 834.3 800.7 838C796.2 851.7 792.2 865.4 795.5 879.8C798 892.4 804.5 898.9 813.7 898.9ZM674.1 746.9C654.4 746.9 638.1 752.7 634.9 753.9C624.6 757.5 615.4 763.2 608.1 770.3C604.4 773.9 601.1 778 598 782.9V783L597.9 783.1C587.5 799.8 582.9 816.8 582 841.9C581.9 843.4 581.8 844.9 581.7 846.5C581.5 849.9 581.2 853.7 581.3 857.7V857.9V858.1C581.7 873.8 586.8 889.6 596.1 903.7L596.2 903.8L596.3 903.9C608.9 922.4 630.9 934 653.6 934C657.7 934 661.8 933.6 665.7 932.8C680.1 930.1 692.1 925.4 702.4 918.4C718 907.8 730.2 895.2 738.7 880.8C739.5 879.5 740.2 878.1 740.9 876.8C741.9 891.5 746.9 906.2 755.5 919.4L755.6 919.5L755.7 919.6C768.3 938.1 790.3 949.7 813 949.7C817.1 949.7 821.2 949.3 825.2 948.5C839.6 945.8 851.6 941.1 861.9 934.1C872.6 926.9 881.7 918.6 889.1 909.5C887.6 919 886.2 928.3 884.8 937.1C883.8 943.3 884 949.8 885.5 956L885.6 956.3L885.7 956.6C889.3 969.8 900.2 978.9 915 980.9C916.6 981.1 918.2 981.2 919.8 981.2C931 981.2 941.5 975.9 947.8 967L948.1 966.6L948.4 966.2C951.6 961.2 953.8 955.6 954.8 950C956.4 941.8 957.7 933.5 959 925.5L959.2 924.3C959.8 921 960.4 917.6 960.9 914.3C962 918 963.1 921.6 964.2 925.3C965.5 930.1 967.3 935.1 969.9 941L970.1 941.5L970.3 941.9C976.6 954 988.9 961.5 1002.3 961.5C1005.4 961.5 1008.5 961.1 1011.5 960.3H1011.6H1011.7C1028.5 955.5 1038.8 940.1 1036.7 923L1036.6 922.6L1036.5 922.2C1035.6 917.1 1034.2 912.2 1032.8 908.1C1031.3 903.2 1029.8 898.3 1028.3 893.5C1025.7 885.1 1023.2 877.1 1020.9 869C1018.8 861.8 1016.9 854.2 1015.1 846.9C1015 846.3 1014.8 845.8 1014.7 845.2C1017 843.7 1019.4 842.2 1021.8 840.7C1023.3 839.8 1024.9 838.8 1026.4 837.8C1030.9 835.2 1035.6 832.4 1039.6 828.8C1050.7 818.9 1053.6 802 1046.4 788.5L1046.1 787.9L1045.7 787.3C1039.2 777.1 1027.6 770.7 1015.4 770.7C1012.3 770.7 1009.2 771.1 1006.2 771.9C1000.8 773.2 995.7 775.4 990.7 778.7C987.7 780.5 984.7 782.3 981.8 784.2C981.5 781.5 980.9 778.8 980.1 776.1L980 775.7L979.9 775.3C975.1 761.6 961.9 752.3 947.1 752.3C938.2 752.3 929.7 755.6 923 761.5C913.5 769.8 911.8 780.4 911.2 784.1C909.6 793.1 907.9 802.2 906.3 811.1C904.8 807.4 903 803.7 900.9 800.2L900 798.6L899.5 798.1C892.4 787.7 884.4 779.6 875.6 774C863.8 766.3 849.6 762.4 833.3 762.4C813.6 762.4 797.3 768.2 794.1 769.4C783.8 773 774.6 778.7 767.3 785.8C763.6 789.4 760.3 793.5 757.2 798.4L757.1 798.5L757 798.6C754.7 802.3 752.7 805.9 751 809.7C749.1 801 745.8 792.5 741.2 784.5L740.3 782.9L739.8 782.4C732.7 772 724.7 763.9 715.9 758.3C704.5 750.8 690.3 746.9 674.1 746.9ZM668 814.7C669.5 814 671 813.6 672.5 813.6C674.4 813.6 677 814.2 679.1 817.2C681.3 820.9 682.1 825.1 681.6 830.7C680 844.6 673.4 855 661.3 862.5C658.2 864.4 656.1 865 655.1 865.2C654.7 864.4 654.1 862.9 653.6 860.6V860.4V860.2C651.4 850.5 654.4 839.9 658.3 828.1L658.4 827.9L658.5 827.7C658.9 826.5 659.9 824.6 660.8 822.8C661.3 821.8 661.9 820.7 662.5 819.5C662.8 818.4 664.1 816.8 668 814.7ZM827.6 830.4C829.1 829.7 830.6 829.3 832.1 829.3C834 829.3 836.6 829.9 838.7 832.9C840.9 836.6 841.7 840.8 841.2 846.4C839.6 860.3 833 870.7 820.9 878.2C817.8 880.1 815.7 880.7 814.7 880.9C814.3 880.1 813.7 878.6 813.2 876.3V876.1V875.9C811 866.2 814 855.6 817.9 843.8L818 843.6L818.1 843.4C818.5 842.2 819.5 840.3 820.4 838.5C820.9 837.5 821.5 836.4 822.1 835.2C822.3 834.1 823.6 832.5 827.6 830.4Z" fill="black"/>
</svg>
