<svg width="96" height="48" viewBox="0 0 96 48" fill="none" xmlns="http://www.w3.org/2000/svg">
<g id="Group 2">
<path id="Rectangle 3" d="M0 0H72C85.2548 0 96 10.7452 96 24C96 37.2548 85.2548 48 72 48H0V0Z" fill="#FDAA5E"/>
<g id="icon">
<g id="Group">
<g id="Group_2">
<path id="Vector" d="M33.5 20.6198C33.5 26.7607 38.6229 31.7396 44.8882 31.7396C51.1534 31.7396 56.2763 26.7607 56.2763 20.6198C56.2763 14.4789 51.1534 9.5 44.8882 9.5C38.6229 9.5 33.5 14.4789 33.5 20.6198ZM36.0985 20.6198C36.0985 15.9108 40.0294 12.0591 44.8882 12.0591C49.7469 12.0591 53.6778 15.9108 53.6778 20.6198C53.6778 25.3288 49.7469 29.1805 44.8882 29.1805C40.0294 29.1805 36.0985 25.3288 36.0985 20.6198Z" fill="white" stroke="white"/>
</g>
</g>
<g id="Group_3">
<g id="Group_4">
<path id="Vector_2" d="M50.7365 28.8116L51.0856 28.4537L50.7365 28.8116L60.2882 38.1279C60.5403 38.3738 60.8627 38.5 61.2007 38.5C61.5213 38.5 61.8582 38.3767 62.1132 38.1279C62.6289 37.625 62.6289 36.8159 62.1132 36.313L52.5615 26.9967C52.0529 26.5006 51.2451 26.5006 50.7365 26.9967C50.2208 27.4996 50.2208 28.3087 50.7365 28.8116Z" fill="white" stroke="white"/>
</g>
</g>
</g>
</g>
</svg>
